<?xml version="1.0" standalone="no"?>
<!DOCTYPE svg PUBLIC "-//W3C//DTD SVG 1.1//EN" "http://www.w3.org/Graphics/SVG/1.1/DTD/svg11.dtd" >
<svg xmlns="http://www.w3.org/2000/svg">
<metadata></metadata>
<defs>
<font id="gt_pressura_monobold" horiz-adv-x="1126" >
<font-face units-per-em="2048" ascent="1638" descent="-410" />
<missing-glyph horiz-adv-x="500" />
<glyph horiz-adv-x="2048" />
<glyph horiz-adv-x="2048" />
<glyph unicode="&#xd;" horiz-adv-x="682" />
<glyph unicode=" " />
<glyph unicode="!" d="M399 41v246q0 16 12.5 28.5t28.5 12.5h246q16 0 28.5 -12.5t12.5 -28.5v-246q0 -16 -12.5 -28.5t-28.5 -12.5h-246q-16 0 -28.5 12.5t-12.5 28.5zM422 477v924q0 12 9 22.5t24 10.5h221q14 0 23.5 -10.5t9.5 -22.5v-924q0 -12 -9.5 -22.5t-23.5 -10.5h-221 q-14 0 -23.5 10.5t-9.5 22.5z" />
<glyph unicode="&#x22;" d="M174 823.5q-14 24.5 2 53.5l111 202q6 10 -1 18.5t-18 8.5h-49q-16 0 -28.5 12t-12.5 29v246q0 16 12.5 28.5t28.5 12.5h246q16 0 28.5 -12.5t12.5 -28.5v-240q0 -41 -12.5 -78t-32.5 -63l-131 -172q-10 -14 -24.5 -27.5t-45.5 -13.5h-41q-31 0 -45 24.5zM624.5 823.5 q-14.5 24.5 2.5 53.5l110 202q6 10 -1 18.5t-17 8.5h-49q-16 0 -28.5 12t-12.5 29v246q0 16 12 28.5t29 12.5h245q16 0 28.5 -12.5t12.5 -28.5v-240q0 -41 -12 -78t-33 -63l-131 -172q-10 -14 -24.5 -27.5t-44.5 -13.5h-41q-31 0 -45.5 24.5z" />
<glyph unicode="#" d="M10 344l23 141q4 16 18.5 28.5t30.5 12.5h102q20 0 25 21l55 313q4 20 -16 21h-103q-16 0 -27.5 12t-6.5 29l22 135q4 16 18.5 28.5t30.5 12.5h103q20 0 24 20l49 275q4 16 17.5 28.5t30.5 12.5h137q16 0 27.5 -12.5t7.5 -28.5l-50 -275q-4 -20 17 -20h176q20 0 24 20 l50 275q4 16 17 28.5t30 12.5h137q16 0 27.5 -12.5t7.5 -28.5l-49 -275q-4 -20 16 -20h102q16 0 26.5 -12.5t6.5 -28.5l-22 -135q-4 -16 -17.5 -28.5t-29.5 -12.5h-103q-20 0 -24 -21l-56 -313q-4 -20 17 -21h102q16 0 26.5 -12t6.5 -29l-23 -141q-4 -16 -17 -28.5 t-30 -12.5h-102q-20 0 -25 -20l-45 -242q-4 -16 -17.5 -28.5t-29.5 -12.5h-137q-16 0 -27.5 12.5t-7.5 28.5l45 242q4 20 -16 20h-176q-20 0 -25 -20l-45 -242q-4 -16 -17.5 -28.5t-29.5 -12.5h-137q-16 0 -27.5 12.5t-7.5 28.5l45 242q4 20 -17 20h-102q-16 0 -27.5 12.5 t-7.5 28.5zM428 547q-4 -20 16 -21h177q20 0 24 21l55 313q4 20 -16 21h-176q-20 0 -25 -21z" />
<glyph unicode="$" d="M70 426v61q0 16 12 28.5t29 12.5h206q16 0 28.5 -12t12.5 -29v-61q0 -72 51.5 -120t147.5 -48q98 0 150.5 48t52.5 120q0 66 -48 101.5t-165 62.5q-96 20 -180 54t-145.5 85t-97.5 124t-36 171q0 72 22.5 136.5t62.5 117.5t97 92t127 62q14 4 23.5 10t9.5 20v74 q0 16 12.5 28.5t28.5 12.5h174q16 0 28.5 -12.5t12.5 -28.5v-70q0 -23 31 -32q70 -23 127 -62t98 -93t63.5 -118.5t22.5 -136.5v-31q0 -16 -12 -28.5t-29 -12.5h-207q-16 0 -28.5 12.5t-12.5 28.5v31q0 61 -47 107.5t-135 46.5q-86 0 -132 -46.5t-46 -107.5q0 -59 51 -90 t131 -47q106 -23 197.5 -56.5t157 -88t103.5 -132.5t38 -184q0 -166 -94.5 -276.5t-245.5 -151.5q-16 -4 -23.5 -10t-7.5 -21v-69q0 -16 -12 -28.5t-29 -12.5h-174q-16 0 -28.5 12t-12.5 29v71q0 14 -9 20.5t-24 10.5q-74 23 -134 63.5t-103 96t-66.5 123t-23.5 143.5z" />
<glyph unicode="%" d="M100 1126q0 49 8.5 100.5t32 92.5t66.5 67.5t112 26.5q70 0 113 -26.5t66.5 -67.5t32 -92t8.5 -101q0 -49 -8.5 -100t-32 -92t-66.5 -67.5t-113 -26.5t-112.5 26.5t-66 67.5t-32 92t-8.5 100zM139 57l664 1346q14 31 45 31h98q20 0 31.5 -17.5t1.5 -40.5l-668 -1345 q-16 -31 -43 -31h-96q-20 0 -31.5 17.5t-1.5 39.5zM260 1126q0 -43 12.5 -81.5t46.5 -38.5q35 0 47.5 38.5t12.5 81.5t-12.5 82t-47.5 39t-47 -39t-12 -82zM580 307q0 49 8 100.5t31.5 92.5t66.5 67.5t113 26.5t112.5 -26.5t66 -67.5t32 -92.5t8.5 -100.5t-8.5 -100t-32 -92 t-66.5 -68t-112 -27q-70 0 -113 27t-66.5 68t-31.5 92t-8 100zM739 307q0 -43 12.5 -82t47.5 -39t47 39t12 82t-12 82t-47 39t-47.5 -39t-12.5 -82z" />
<glyph unicode="&#x26;" d="M25 422q0 86 43 170t112 137q23 16 2 45q-41 51 -67.5 124t-26.5 140q0 86 33 158t90 125t133 83t162 30q78 0 147.5 -29t122.5 -80t85 -119.5t32 -148.5q0 -41 -17.5 -51.5t-44.5 -10.5h-151q-57 0 -64 60q-4 47 -34.5 78.5t-83.5 31.5q-66 0 -102 -33.5t-36 -93.5 q0 -29 10.5 -58.5t26 -56t29.5 -48t25 -31.5l305 -363q10 -10 18 4q12 20 12 170q0 16 12.5 28.5t28.5 12.5h140q16 0 28.5 -12t12.5 -29q0 -92 -5.5 -156.5t-13.5 -107.5t-17 -67.5t-18 -36.5q-8 -12 2 -25l158 -186q16 -20 7 -48t-44 -28h-162q-23 0 -30.5 7t-14.5 13 l-45 48q-14 14 -23 9t-16 -9q-59 -47 -133.5 -69t-156.5 -22q-94 0 -179.5 34t-150 94.5t-103 141.5t-38.5 175zM305 422q0 -39 19.5 -75t50.5 -63.5t68.5 -44t76.5 -16.5q27 0 48.5 7.5t43.5 23.5q2 2 4 5t-2 7l-241 287q-6 6 -13 0q-55 -51 -55 -131z" />
<glyph unicode="'" d="M399 823.5q-14 24.5 2 53.5l111 202q6 10 -1 18.5t-17 8.5h-50q-16 0 -28.5 12t-12.5 29v246q0 16 12.5 28.5t28.5 12.5h246q16 0 28.5 -12.5t12.5 -28.5v-240q0 -41 -12 -78t-33 -63l-131 -172q-10 -14 -24.5 -27.5t-45.5 -13.5h-41q-31 0 -45 24.5z" />
<glyph unicode="(" d="M301 646q0 81 2 156t5 138.5t9 103.5q10 84 45 162t93.5 137.5t139.5 95.5t183 36h127q16 0 28.5 -12.5t12.5 -28.5v-181q0 -16 -12 -28.5t-29 -12.5h-127q-70 0 -123 -35.5t-71 -132.5q-12 -63 -18.5 -171.5t-6.5 -227.5t6 -227.5t19 -171.5q14 -74 59 -121t135 -47h127 q16 0 28.5 -12.5t12.5 -28.5v-180q0 -16 -12 -28.5t-29 -12.5h-127q-92 0 -171 29.5t-139 86t-99 136t-52 178.5q-6 41 -9 105.5t-5 139t-2 155.5z" />
<glyph unicode=")" d="M178 37q0 16 12.5 28.5t28.5 12.5h127q90 0 135 47t60 121q12 63 18 171.5t6 227.5t-6 227.5t-18 171.5q-18 96 -71.5 132t-123.5 36h-127q-16 0 -28.5 12.5t-12.5 28.5v181q0 16 12.5 28.5t28.5 12.5h127q100 0 182 -36t140.5 -95.5t93.5 -137.5t45 -162q4 -41 8 -104 t5 -138t1 -156t-1 -155.5t-5 -139t-8 -105.5q-12 -98 -51 -178t-99.5 -136.5t-139.5 -86t-171 -29.5h-127q-16 0 -28.5 12t-12.5 29v180z" />
<glyph unicode="*" d="M264 1124.5q6 24.5 31 36.5l55 27l-57 26q-23 10 -29 36t6 48l52 86q12 23 36.5 31t47.5 -8l49 -35l-4 62q-2 27 16 44t45 17h100q27 0 46.5 -17.5t15.5 -43.5l-6 -62l53 35q20 14 45 7t39 -30l47 -86q14 -23 8 -47t-31 -37l-55 -26l57 -27q23 -10 29 -35.5t-6 -48.5 l-51 -86q-12 -23 -37 -31t-47 9l-51 35l6 -62q4 -27 -15.5 -44t-46.5 -17h-100q-27 0 -45 17t-16 44l4 62l-52 -35q-20 -14 -44.5 -7t-39.5 29l-47 86q-14 23 -8 47.5z" />
<glyph unicode="+" d="M113 422v182q0 16 12 28.5t29 12.5h256q20 0 20 21v256q0 16 12.5 28.5t28.5 12.5h182q16 0 28.5 -12.5t12.5 -28.5v-256q0 -20 21 -21h258q16 0 28.5 -12t12.5 -29v-182q0 -16 -12.5 -28.5t-28.5 -12.5h-258q-20 0 -21 -21v-258q0 -16 -12 -28.5t-29 -12.5h-182 q-16 0 -28.5 12.5t-12.5 28.5v258q0 20 -20 21h-256q-16 0 -28.5 12.5t-12.5 28.5z" />
<glyph unicode="," d="M399 -282.5q-14 24.5 2 53.5l111 202q6 10 -1 18.5t-17 8.5h-50q-16 0 -28.5 12.5t-12.5 28.5v246q0 16 12.5 28.5t28.5 12.5h246q16 0 28.5 -12.5t12.5 -28.5v-240q0 -41 -13 -77t-32 -64l-131 -172q-10 -14 -24.5 -27.5t-45.5 -13.5h-41q-31 0 -45 24.5z" />
<glyph unicode="-" d="M242 446v203q0 16 12 28.5t29 12.5h559q16 0 28.5 -12t12.5 -29v-203q0 -16 -12.5 -28t-28.5 -12h-559q-16 0 -28.5 12t-12.5 28z" />
<glyph unicode="." d="M399 41v246q0 16 12.5 28.5t28.5 12.5h246q16 0 28.5 -12.5t12.5 -28.5v-246q0 -16 -12.5 -28.5t-28.5 -12.5h-246q-16 0 -28.5 12.5t-12.5 28.5z" />
<glyph unicode="/" d="M160 33l545 1390q10 31 38 31h189q20 0 31.5 -17.5t1.5 -39.5l-541 -1391q-10 -31 -43 -31h-188q-20 0 -31.5 17.5t-1.5 40.5z" />
<glyph unicode="0" d="M90 717q0 76 4 148.5t12 138.5q10 92 48.5 174t97.5 144t138 98t173 36t173 -36t138.5 -98t97.5 -144t48 -174q8 -66 11 -138.5t3 -148.5t-3 -149.5t-11 -137.5q-10 -92 -48 -174t-97.5 -144.5t-138.5 -98.5t-173 -36t-173 36t-138 98.5t-97 144.5t-49 174q-8 63 -12 137 t-4 150zM375 717q0 -160 16 -295q8 -70 54.5 -118t117.5 -48q72 0 118 48t54 118q16 135 16.5 295t-16.5 295q-8 70 -54 118t-118 48t-118 -48.5t-54 -117.5q-16 -135 -16 -295z" />
<glyph unicode="1" d="M113 842v196q0 25 5 46.5t27 43.5l238 256q14 16 38.5 33t63.5 17h228q16 0 28.5 -12.5t12.5 -28.5v-1096q0 -20 20 -21h227q16 0 28.5 -12t12.5 -28v-195q0 -16 -12 -28.5t-29 -12.5h-839q-16 0 -28.5 12.5t-12.5 28.5v195q0 16 12 28t29 12h287q20 0 20 21v727 q0 20 -14.5 23.5t-24.5 -7.5l-248 -231q-18 -18 -43.5 -8t-25.5 41z" />
<glyph unicode="2" d="M121 41v242q0 23 6 34t12 17l531 563q16 18 36.5 59t20.5 74q0 61 -39 105.5t-108 44.5q-78 0 -123 -41t-45 -109v-35q0 -16 -12.5 -28.5t-28.5 -12.5h-195q-16 0 -28.5 12.5t-12.5 28.5v33q0 90 35 168t94.5 136.5t138 91t168.5 32.5t169 -32.5t137.5 -91t92.5 -136.5 t34 -168q0 -86 -35 -164t-92 -139l-385 -408q-10 -10 -8.5 -25.5t28.5 -15.5h453q16 0 28.5 -12t12.5 -28v-195q0 -16 -12.5 -28.5t-28.5 -12.5h-803q-16 0 -28.5 12.5t-12.5 28.5z" />
<glyph unicode="3" d="M109 426v20q0 16 12 28.5t29 12.5h196q16 0 28.5 -12t12.5 -29v-20q0 -80 48 -125t130 -45q80 0 129 45t49 125t-49 125t-129 45h-24q-16 0 -28.5 12.5t-12.5 28.5v192q0 16 12 28.5t29 12.5h24q72 0 116 42t44 114q0 70 -44 111t-116 41q-70 0 -114.5 -41t-44.5 -111 v-31q0 -16 -12.5 -28.5t-28.5 -12.5h-197q-16 0 -28.5 12.5t-12.5 28.5v31q0 90 35 168t94 136.5t139 92t170 33.5t170 -33.5t139.5 -92t93 -136.5t33.5 -168q0 -78 -30.5 -147.5t-77.5 -120.5q-20 -20 0 -37q59 -49 94 -129t35 -166q0 -94 -36 -176t-98.5 -142.5 t-145.5 -95.5t-177 -35t-177 35t-145.5 95.5t-98 142.5t-35.5 176z" />
<glyph unicode="4" d="M90 297v213q0 23 10.5 40t22.5 38l473 817q10 16 18.5 22.5t24.5 6.5h219q16 0 28.5 -12.5t12.5 -28.5v-858q0 -20 21 -21h75q16 0 28.5 -12.5t12.5 -28.5v-176q0 -16 -12 -28.5t-29 -12.5h-75q-20 0 -21 -20v-195q0 -16 -12.5 -28.5t-28.5 -12.5h-184q-16 0 -28.5 12.5 t-12.5 28.5v195q0 20 -21 20h-481q-16 0 -28.5 12.5t-12.5 28.5zM375 539q-14 -25 12 -25h225q20 0 21 21v434q0 10 -9.5 12t-13.5 -6z" />
<glyph unicode="5" d="M109 385q0 20 12 30.5t29 10.5h192q16 0 28.5 -12.5t12.5 -28.5q0 -35 15.5 -59.5t41 -40t57 -22.5t64.5 -7q49 0 84 18.5t56.5 48t30.5 69.5t9 83t-10 84t-31.5 73t-55.5 51t-83 19q-47 0 -81 -18t-54 -47q-16 -23 -49 -23h-199q-16 0 -28.5 12.5t-12.5 28.5v738 q0 16 12.5 28.5t28.5 12.5h740q16 0 28 -12.5t12 -28.5v-197q0 -16 -12 -28.5t-28 -12.5h-488q-20 0 -20 -20v-191q0 -20 12 -24.5t27 6.5q20 14 54 24.5t72 10.5q100 0 181.5 -36t139.5 -100.5t90 -153.5t32 -196q0 -92 -30 -182t-87 -160t-142 -113t-198 -43 q-90 0 -172 25t-144.5 76t-99 127t-36.5 180z" />
<glyph unicode="6" d="M100 717q0 78 4.5 153.5t12.5 141.5q10 92 47 173t95 141t136 95t168 35q84 0 164 -28.5t142.5 -81t100.5 -126t38 -163.5q0 -16 -12.5 -28.5t-28.5 -12.5h-174q-47 0 -58 41q-12 51 -53 91t-119 40q-96 0 -141 -65.5t-45 -174.5q0 -23 15.5 -30t31.5 4q20 10 61 21 t88 11q94 0 177.5 -35.5t145.5 -98t98 -145.5t36 -177v-72q0 -94 -36 -176t-98 -142.5t-145 -95.5t-178 -35q-94 0 -172.5 35t-138 95.5t-97.5 141.5t-48 173q-8 63 -12.5 140t-4.5 155zM391 422q6 -80 54.5 -128t127.5 -48q80 0 128.5 48t54.5 128q2 39 0 80 q-6 80 -54.5 132t-128.5 52t-128 -52t-54 -132q-2 -41 0 -80z" />
<glyph unicode="7" d="M129 1198v195q0 16 12.5 28.5t28.5 12.5h786q16 0 28.5 -12.5t12.5 -28.5v-246q0 -18 -10 -41l-467 -1075q-14 -31 -39 -31h-219q-29 0 -36 17.5t-1 31.5l482 1088q8 20 -15 20h-522q-16 0 -28.5 12.5t-12.5 28.5z" />
<glyph unicode="8" d="M96 426q0 86 29 158.5t80 132.5q18 20 -2 45q-88 113 -88 264q0 90 34.5 168t95 136.5t142.5 92t176 33.5t176 -33.5t141.5 -92t94.5 -136.5t35 -168q0 -156 -90 -264q-10 -12 -11.5 -22.5t11.5 -22.5q55 -55 82.5 -130t27.5 -161q0 -94 -36 -176t-99.5 -142.5 t-148 -95.5t-183.5 -35q-98 0 -183 35t-148.5 95.5t-99.5 142.5t-36 176zM367 426q0 -78 53 -127t143 -49t143.5 49t53.5 127t-53.5 131t-143.5 53t-143 -53t-53 -131zM387 1026q0 -70 50 -118t126 -48q78 0 127 48t49 118q0 68 -49 113t-127 45q-76 0 -126 -45t-50 -113z " />
<glyph unicode="9" d="M100 381q0 16 12.5 28.5t28.5 12.5h166q47 0 58 -41q12 -53 54 -94t126 -41q47 0 87 12t68.5 41t44 76t15.5 117q0 23 -16.5 27.5t-32.5 -1.5q-23 -8 -72 -19.5t-96 -11.5q-90 0 -167 34t-135.5 93.5t-93 139.5t-41.5 172q-2 29 -2 48t2 52q4 90 39 168t93.5 136.5 t137.5 92t169 33.5q96 0 177 -35t140.5 -95t97 -141t48.5 -173q8 -66 11 -141.5t3 -153.5t-3 -155t-11 -140q-10 -92 -48 -173t-97.5 -141.5t-138.5 -95.5t-173 -35q-96 0 -178 31t-142.5 85t-95.5 128t-35 160zM383 974.5q0 -22.5 4 -54.5q8 -72 52 -121t116 -49t116 49 t52 121q4 33 4 55t-4 57q-6 72 -51 117t-117 45t-117 -45t-51 -117q-4 -35 -4 -57.5z" />
<glyph unicode=":" d="M401 41v246q0 16 12.5 28.5t28.5 12.5h246q16 0 28.5 -12.5t12.5 -28.5v-246q0 -16 -12 -28.5t-29 -12.5h-246q-16 0 -28.5 12.5t-12.5 28.5zM401 737v246q0 16 12.5 28.5t28.5 12.5h246q16 0 28.5 -12.5t12.5 -28.5v-246q0 -16 -12 -28.5t-29 -12.5h-246 q-16 0 -28.5 12.5t-12.5 28.5z" />
<glyph unicode=";" d="M399 -282.5q-14 24.5 2 53.5l111 202q6 10 -1 18.5t-17 8.5h-50q-16 0 -28.5 12.5t-12.5 28.5v246q0 16 12.5 28.5t28.5 12.5h246q16 0 28.5 -12.5t12.5 -28.5v-240q0 -41 -12 -78t-33 -63l-131 -172q-10 -14 -24.5 -27.5t-45.5 -13.5h-41q-31 0 -45 24.5zM403 737v246 q0 16 12.5 28.5t28.5 12.5h246q16 0 28.5 -12.5t12.5 -28.5v-246q0 -16 -12 -28.5t-29 -12.5h-246q-16 0 -28.5 12.5t-12.5 28.5z" />
<glyph unicode="&#x3c;" d="M154 483v60q0 29 8 43t22 22l742 416q14 8 30.5 -3t16.5 -36v-215q0 -25 -31 -43l-414 -207q-16 -8 0 -16l414 -207q31 -16 31 -43v-215q0 -25 -16.5 -36t-30.5 -3l-742 418q-14 8 -22 22.5t-8 42.5z" />
<glyph unicode="=" d="M113 219v178q0 16 12 28.5t29 12.5h819q16 0 28.5 -12t12.5 -29v-178q0 -16 -12.5 -28.5t-28.5 -12.5h-819q-16 0 -28.5 12.5t-12.5 28.5zM113 627v178q0 16 12 28.5t29 12.5h819q16 0 28.5 -12.5t12.5 -28.5v-178q0 -16 -12.5 -28.5t-28.5 -12.5h-819q-16 0 -28.5 12 t-12.5 29z" />
<glyph unicode="&#x3e;" d="M154 39v215q0 27 30 43l414 207q16 8 0 16l-414 207q-31 14 -30 43v215q0 25 16 36t31 3l741 -416q14 -8 22.5 -22.5t8.5 -42.5v-60q0 -29 -8.5 -43t-22.5 -22l-741 -418q-14 -8 -30.5 3t-16.5 36z" />
<glyph unicode="?" d="M123 995v31q0 90 35 170t93 139.5t137 94t169 34.5t169 -30.5t137.5 -86t92 -131t33.5 -165.5q0 -63 -18.5 -117.5t-47 -100t-64.5 -80t-68 -59.5q-29 -23 -47.5 -41t-28.5 -38.5t-14.5 -46t-4.5 -62.5v-21q0 -16 -12 -28.5t-29 -12.5h-204q-16 0 -28.5 12.5t-12.5 28.5 v21q0 25 -1 54.5t4 63t17 68.5t37 68q35 43 80 72.5t78 60.5t55 69.5t22 73.5q0 66 -42 105t-103 39q-70 0 -108.5 -45t-38.5 -105v-35q0 -16 -12.5 -28.5t-28.5 -12.5h-205q-16 0 -28.5 12.5t-12.5 28.5zM389 41v246q0 16 12.5 28.5t28.5 12.5h246q16 0 28.5 -12.5 t12.5 -28.5v-246q0 -16 -12.5 -28.5t-28.5 -12.5h-246q-16 0 -28.5 12.5t-12.5 28.5z" />
<glyph unicode="@" d="M41 406v294q0 109 42 202t114.5 160.5t170 106.5t207.5 39q96 0 187.5 -27.5t163 -85t114.5 -145.5t43 -209v-290q0 -109 -47 -177.5t-145 -68.5q-29 0 -48.5 6t-34.5 14t-27.5 14.5t-24.5 6.5q-20 0 -39 -8.5t-39 -16.5q-51 -20 -105 -20q-74 0 -124 25.5t-80.5 71.5 t-43 108.5t-12.5 134.5q0 63 7.5 129.5t34 120t77.5 88t139 34.5q57 0 104.5 -18t81.5 -49t52 -74t18 -92v-225q0 -45 39 -45q43 0 43 45v286q0 74 -29.5 127.5t-76.5 88t-107.5 51t-124.5 16.5q-158 0 -251 -87t-93 -237v-294q0 -90 34 -153t85 -100.5t111.5 -54 t113.5 -16.5q59 0 113.5 10t103.5 33q20 10 35 0t15 -31v-94q0 -25 -15.5 -36t-34.5 -21q-33 -18 -95 -31.5t-122 -13.5q-104 0 -200.5 30.5t-170 94t-116.5 158.5t-43 225zM479 543q0 -25 1 -53.5t9.5 -52t27 -40t54.5 -16.5q43 0 64.5 18.5t21.5 46.5v222q0 29 -21.5 47 t-64.5 18q-35 0 -53 -13t-27.5 -38t-10.5 -60.5t-1 -78.5z" />
<glyph unicode="A" d="M20 41l367 1362q6 31 39 31h274q33 0 39 -31l365 -1362q1 -4 1 -8q1 -9 -7 -19q-10 -14 -35 -14h-215q-29 0 -39 31l-64 211q-4 12 -10 21t-20 9h-312q-25 0 -30 -30l-58 -211q-6 -31 -39 -31h-215q-25 0 -35 14q-7 10 -7 19q0 4 1 8zM451 582q-1 -5 -1 -9q0 -14 17 -14 h188q18 0 18 14q0 4 -1 9l-99 491q-2 8 -10 8h-4q-8 0 -10 -8z" />
<glyph unicode="B" d="M90 41v1352q0 16 12.5 28.5t28.5 12.5h483q86 0 160 -33t128 -89.5t85 -133t31 -162.5q0 -68 -30 -140.5t-75 -117.5q-20 -20 0 -37q25 -23 47.5 -53.5t39 -67.5t25.5 -78t9 -80q0 -100 -29.5 -182t-85 -139.5t-133 -89t-172.5 -31.5h-483q-16 0 -28.5 12.5t-12.5 28.5z M371 307q0 -20 20 -20h213q66 0 105 47t39 108q0 59 -39 106.5t-105 47.5h-213q-20 0 -20 -21v-268zM371 903q0 -20 20 -20h213q53 0 94 40t41 93t-41 92t-94 39h-213q-20 0 -20 -21v-223z" />
<glyph unicode="C" d="M68 717q0 76 4 148.5t12 138.5q10 92 48 174t100.5 144t147.5 98t191 36t195.5 -35t154 -97t101.5 -148t37 -189q0 -16 -12.5 -28.5t-28.5 -12.5h-205q-16 0 -27.5 12.5t-13.5 28.5q-6 80 -59.5 130t-141.5 50q-94 0 -142 -48t-56 -115q-8 -66 -12.5 -138.5t-4.5 -148.5 t4.5 -149.5t12.5 -137.5q8 -68 56 -116t142 -48q88 0 141.5 50.5t59.5 129.5q2 16 13.5 28.5t27.5 12.5h205q16 0 28.5 -12t12.5 -29q0 -102 -37 -188t-101.5 -148.5t-153.5 -97.5t-196 -35q-106 0 -191 36t-147.5 98.5t-100.5 144.5t-48 174q-8 63 -12 137t-4 150z" />
<glyph unicode="D" d="M90 41v1352q0 16 12.5 28.5t28.5 12.5h430q94 0 173 -36t138.5 -98.5t97.5 -144.5t48 -174q16 -129 16 -264t-16 -264q-10 -92 -48 -174t-97.5 -144.5t-138.5 -98.5t-173 -36h-430q-16 0 -28.5 12.5t-12.5 28.5zM377 307q0 -20 20 -20h164q72 0 116 49t52 117 q16 129 16 264t-16 264q-8 68 -52 117t-116 49h-164q-20 0 -20 -21v-819z" />
<glyph unicode="E" d="M145 41v1352q0 16 12.5 28.5t28.5 12.5h744q16 0 28.5 -12.5t12.5 -28.5v-205q0 -16 -12.5 -28.5t-28.5 -12.5h-477q-20 0 -21 -21v-245q0 -20 21 -21h460q16 0 28.5 -12t12.5 -29v-205q0 -16 -12 -28.5t-29 -12.5h-460q-20 0 -21 -20v-246q0 -20 21 -20h485 q16 0 28.5 -12.5t12.5 -28.5v-205q0 -16 -12.5 -28.5t-28.5 -12.5h-752q-16 0 -28.5 12.5t-12.5 28.5z" />
<glyph unicode="F" d="M205 41v1352q0 16 12 28.5t29 12.5h717q16 0 28.5 -12.5t12.5 -28.5v-205q0 -16 -12.5 -28.5t-28.5 -12.5h-451q-20 0 -20 -21v-245q0 -20 20 -21h430q16 0 28.5 -12t12.5 -29v-205q0 -16 -12.5 -28.5t-28.5 -12.5h-430q-20 0 -20 -20v-512q0 -16 -12.5 -28.5 t-28.5 -12.5h-205q-16 0 -28.5 12.5t-12.5 28.5z" />
<glyph unicode="G" d="M68 717q0 76 4 148.5t12 138.5q10 92 48 174t100.5 144t147.5 98t191 36t195.5 -35t154 -97t101.5 -148t37 -189q0 -16 -12.5 -28.5t-28.5 -12.5h-205q-16 0 -27.5 12.5t-13.5 28.5q-6 80 -59.5 130t-141.5 50q-94 0 -142 -48t-56 -115q-8 -66 -12.5 -138.5t-4.5 -148.5 t4.5 -149.5t12.5 -137.5q8 -68 56 -116t142 -48q92 0 149.5 45t57.5 115v88q0 20 -20 21h-140q-16 0 -28 12t-12 28v195q0 16 12 28.5t28 12.5h400q16 0 28.5 -12.5t12.5 -28.5v-344q0 -92 -37 -174t-101.5 -142.5t-154.5 -96.5t-195 -36q-106 0 -191 36t-147.5 98.5 t-100.5 144.5t-48 174q-8 63 -12 137t-4 150z" />
<glyph unicode="H" d="M100 41v1352q0 16 12.5 28.5t28.5 12.5h205q16 0 28.5 -12.5t12.5 -28.5v-512q0 -20 21 -21h311q20 0 20 21v512q0 16 12.5 28.5t28.5 12.5h205q16 0 28.5 -12.5t12.5 -28.5v-1352q0 -16 -12.5 -28.5t-28.5 -12.5h-205q-16 0 -28.5 12.5t-12.5 28.5v512q0 20 -20 20h-311 q-20 0 -21 -20v-512q0 -16 -17.5 -28.5t-33.5 -12.5h-195q-16 0 -28.5 12.5t-12.5 28.5z" />
<glyph unicode="I" d="M133 41v195q0 16 12.5 28t28.5 12h225q20 0 21 21v840q0 20 -21 20h-204q-16 0 -28.5 12.5t-12.5 28.5v195q0 16 12 28.5t29 12.5h737q16 0 28.5 -12.5t12.5 -28.5v-195q0 -16 -12.5 -28.5t-28.5 -12.5h-205q-20 0 -20 -20v-840q0 -20 20 -21h225q16 0 28.5 -12t12.5 -28 v-195q0 -16 -12 -28.5t-29 -12.5h-778q-16 0 -28.5 12.5t-12.5 28.5z" />
<glyph unicode="J" d="M47 432v57q0 16 12.5 28.5t28.5 12.5h207q16 0 28.5 -12t12.5 -29v-57q0 -70 50 -118t136 -48q84 0 134.5 50.5t50.5 136.5v940q0 16 12 28.5t29 12.5h206q16 0 28.5 -12.5t12.5 -28.5v-961q0 -94 -33.5 -177t-95 -144.5t-149.5 -97.5t-195 -36q-102 0 -188 36 t-150.5 97.5t-100.5 144.5t-36 177z" />
<glyph unicode="K" d="M117 41v1352q0 16 12 28.5t29 12.5h202q16 0 28.5 -12.5t12.5 -28.5v-471q0 -10 8.5 -11.5t12.5 4.5l338 498q4 6 13 13.5t32 7.5h207q29 0 40 -26t-5 -48l-383 -565q-14 -20 -13.5 -35t13.5 -33l419 -649q8 -13 8 -27q0 -11 -5 -23q-11 -28 -46 -28h-221q-23 0 -33 8 t-14 17l-350 559q-4 6 -12.5 5t-8.5 -11v-537q0 -16 -12 -28.5t-29 -12.5h-202q-16 0 -28.5 12.5t-12.5 28.5z" />
<glyph unicode="L" d="M195 41v1352q0 16 12 28.5t29 12.5h204q16 0 28.5 -12.5t12.5 -28.5v-1086q0 -20 21 -20h512q16 0 28.5 -12.5t12.5 -28.5v-205q0 -16 -12.5 -28.5t-28.5 -12.5h-778q-16 0 -28.5 12.5t-12.5 28.5z" />
<glyph unicode="M" d="M63 41v1352q0 16 12.5 28.5t28.5 12.5h283q35 0 43 -35l115 -400q4 -16 18.5 -16t18.5 16l114 400q8 35 43 35h283q16 0 28.5 -12.5t12.5 -28.5v-1352q0 -16 -12.5 -28.5t-28.5 -12.5h-201q-16 0 -28.5 12.5t-12.5 28.5v811q0 8 -6 9t-10 -7l-96 -307q-12 -35 -43 -35 h-121q-31 0 -43 35l-99 307q-4 8 -10 7t-6 -9v-811q0 -16 -12 -28.5t-29 -12.5h-201q-16 0 -28.5 12.5t-12.5 28.5z" />
<glyph unicode="N" d="M102 41v1352q0 16 12.5 28.5t28.5 12.5h244q23 0 35 -11.5t16 -25.5l281 -779q4 -10 11 -8t7 13v770q0 16 12.5 28.5t28.5 12.5h205q16 0 28.5 -12.5t12.5 -28.5v-1352q0 -16 -12.5 -28.5t-28.5 -12.5h-242q-27 0 -39 11.5t-16 23.5l-278 719q-4 10 -11.5 8t-7.5 -12 v-709q0 -16 -12 -28.5t-29 -12.5h-205q-16 0 -28.5 12.5t-12.5 28.5z" />
<glyph unicode="O" d="M59 717q0 76 4.5 148.5t12.5 138.5q10 92 48 174t100.5 144t147.5 98t191 36t191.5 -36t148 -98t100 -144t48.5 -174q8 -66 11 -138.5t3 -148.5t-3 -149.5t-11 -137.5q-10 -92 -48 -174t-100.5 -144.5t-147.5 -98.5t-192 -36q-106 0 -191 36t-147.5 98.5t-100.5 144.5 t-48 174q-8 63 -12.5 137t-4.5 150zM348 717q0 -76 4 -149.5t13 -137.5q8 -68 56 -116t142 -48t142.5 48t56.5 116q8 63 11 137t3 150t-3 148.5t-11 138.5q-8 68 -56.5 115.5t-142.5 47.5t-142 -48t-56 -115q-8 -66 -12.5 -138.5t-4.5 -148.5z" />
<glyph unicode="P" d="M143 41v1352q0 16 12.5 28.5t28.5 12.5h451q88 0 167 -34t137 -92.5t92 -137t34 -166.5q0 -90 -34 -168t-92 -136.5t-137 -92.5t-167 -34h-184q-20 0 -21 -20v-512q0 -16 -12 -28.5t-29 -12.5h-205q-16 0 -28.5 12.5t-12.5 28.5zM430 881q0 -20 21 -21h184q59 0 101 42 t42 102q0 59 -42 101t-101 42h-184q-20 0 -21 -21v-245z" />
<glyph unicode="Q" d="M59 717q0 76 4.5 148.5t12.5 138.5q10 92 48 174t100.5 144t147.5 98t191 36t191.5 -36t148 -98t100 -144t48.5 -174q8 -66 11 -138.5t3 -148.5t-3 -149.5t-11 -137.5q-10 -90 -48.5 -175t-91.5 -138q-10 -10 -13 -19.5t5 -25.5l92 -183q10 -23 3 -48t-52 -25h-188 q-27 0 -38 13t-24 36l-47 92q-6 10 -13 15t-24 5h-49q-106 0 -191 36t-147.5 98.5t-100.5 144.5t-48 174q-8 63 -12.5 137t-4.5 150zM348 717q0 -76 4 -149.5t13 -137.5q8 -68 56 -116t142 -48t142.5 48t56.5 116q8 63 11 137t3 150t-3 148.5t-11 138.5q-8 68 -56.5 115.5 t-142.5 47.5t-142 -48t-56 -115q-8 -66 -12.5 -138.5t-4.5 -148.5z" />
<glyph unicode="R" d="M119 41v1352q0 16 12 28.5t29 12.5h450q88 0 167 -34t137.5 -92.5t92 -137t33.5 -166.5q0 -119 -51 -204t-162 -159q-23 -16 -22.5 -30.5t10.5 -37.5l219 -512q10 -23 1 -42t-40 -19h-211q-25 0 -38 11.5t-21 29.5l-209 506q-4 8 -12 17t-25 9h-53q-20 0 -20 -20v-512 q0 -16 -12.5 -28.5t-28.5 -12.5h-205q-16 0 -28.5 12.5t-12.5 28.5zM406 881q0 -20 20 -21h184q59 0 101.5 42t42.5 102q0 59 -42 101t-102 42h-184q-20 0 -20 -21v-245z" />
<glyph unicode="S" d="M70 426v61q0 16 12 28.5t29 12.5h206q16 0 28.5 -12t12.5 -29v-61q0 -72 51.5 -120t147.5 -48q92 0 147.5 48t55.5 120q0 66 -48 101.5t-165 62.5q-96 20 -180 54t-145.5 85t-97.5 124t-36 171q0 90 35 169t98.5 137.5t148.5 92t187 33.5t189.5 -33.5t149.5 -92 t97 -137.5t35 -169v-31q0 -16 -12 -28.5t-29 -12.5h-207q-16 0 -28.5 12.5t-12.5 28.5v31q0 61 -47 107.5t-135 46.5q-86 0 -132 -41t-46 -103q0 -59 51 -95t131 -52q106 -23 197.5 -56.5t157 -88t103.5 -132.5t38 -184q0 -100 -37 -182t-103.5 -141.5t-158.5 -92.5 t-201 -33q-106 0 -195.5 35t-154 95.5t-101 142.5t-36.5 176z" />
<glyph unicode="T" d="M80 1188v205q0 16 12 28.5t29 12.5h880q16 0 28.5 -12.5t12.5 -28.5v-205q0 -16 -12 -28.5t-29 -12.5h-276q-20 0 -20 -21v-1085q0 -16 -12.5 -28.5t-28.5 -12.5h-205q-16 0 -28.5 12.5t-12.5 28.5v1085q0 20 -21 21h-276q-16 0 -28.5 12t-12.5 29z" />
<glyph unicode="U" d="M76 430v963q0 16 12 28.5t29 12.5h207q16 0 28.5 -12.5t12.5 -28.5v-963q0 -68 51 -116t143 -48q94 0 146.5 48t52.5 116v963q0 16 12 28.5t29 12.5h207q16 0 28.5 -12.5t12.5 -28.5v-963q0 -92 -37 -175t-101.5 -144.5t-153.5 -97.5t-196 -36q-104 0 -193.5 36 t-154 97.5t-100 144.5t-35.5 175z" />
<glyph unicode="V" d="M14 1384q-1 5 -1 10q1 11 7 23q10 17 33 17h226q33 0 38 -31l226 -961q4 -14 14 -14h12q10 0 15 14l223 961q6 31 39 31h225q25 0 34 -16q6 -11 6 -24q0 -5 -1 -10l-354 -1353q-10 -31 -39 -31h-309q-31 0 -39 31z" />
<glyph unicode="W" d="M10 1393v5q0 14 8 24q10 12 33 12h191q14 0 25.5 -7.5t13.5 -23.5l79 -819q2 -14 13.5 -14.5t15.5 14.5l74 409q6 31 39 31h123q33 0 39 -31l75 -409q4 -14 15.5 -14.5t13.5 14.5l78 819q2 16 13 23.5t26 7.5h190q25 0 34 -12q7 -10 7 -23v-6l-145 -1362 q-2 -16 -13.5 -23.5t-25.5 -7.5h-246q-33 0 -39 31l-72 370q-2 10 -12 10.5t-12 -10.5l-72 -370q-6 -31 -39 -31h-245q-14 0 -25.5 7t-13.5 24z" />
<glyph unicode="X" d="M43 57l301 682q6 14 6 21.5t-6 23.5l-266 592q-10 23 1 40.5t32 17.5h231q25 0 39 -31l170 -424q4 -8 10 -8h4q6 0 10 8l170 424q14 31 39 31h232q20 0 31.5 -17.5t1.5 -40.5l-267 -594q-6 -16 -6 -23t6 -22l301 -680q5 -11 5 -21q0 -11 -6 -19q-11 -17 -31 -17h-242 q-33 0 -43 31l-191 485q-4 8 -10 8h-4q-6 0 -10 -8l-191 -485q-10 -31 -43 -31h-241q-20 0 -32 18q-6 9 -6 20q0 9 5 19z" />
<glyph unicode="Y" d="M57 1376q-5 11 -5 20q0 11 6 20q12 18 32 18h225q29 0 39 -31l197 -567q2 -8 10 -9h4q8 0 10 9l197 567q10 31 39 31h225q20 0 32 -18q6 -9 6 -20q0 -9 -5 -20l-362 -913v-422q0 -16 -12.5 -28.5t-28.5 -12.5h-205q-16 0 -28.5 12.5t-12.5 28.5v422z" />
<glyph unicode="Z" d="M98 41v244q0 16 11 32l565 816q4 8 1 14t-13 6h-492q-16 0 -28.5 12.5t-12.5 28.5v199q0 16 12.5 28.5t28.5 12.5h797q16 0 28.5 -12.5t12.5 -28.5v-238q0 -16 -11 -33l-563 -821q-4 -8 -1 -14t13 -6h541q16 0 28.5 -12.5t12.5 -28.5v-199q0 -16 -12 -28.5t-29 -12.5 h-848q-16 0 -28.5 12.5t-12.5 28.5z" />
<glyph unicode="[" d="M397 -143v1577q0 16 12.5 28.5t28.5 12.5h496q16 0 28.5 -12.5t12.5 -28.5v-168q0 -16 -12.5 -28.5t-28.5 -12.5h-266q-20 0 -21 -21v-1118q0 -20 21 -20h266q16 0 28.5 -12.5t12.5 -28.5v-168q0 -16 -12.5 -28.5t-28.5 -12.5h-496q-16 0 -28.5 12t-12.5 29z" />
<glyph unicode="\" d="M162 1397q-10 23 1 40t32 17h188q29 0 39 -31l545 -1390q10 -23 -1.5 -40.5t-31.5 -17.5h-189q-33 0 -43 31z" />
<glyph unicode="]" d="M152 25q0 16 12 28.5t29 12.5h266q20 0 20 20v1118q0 20 -20 21h-266q-16 0 -28.5 12t-12.5 29v168q0 16 12 28.5t29 12.5h495q16 0 28.5 -12.5t12.5 -28.5v-1577q0 -16 -12 -28.5t-29 -12.5h-495q-16 0 -28.5 12t-12.5 29v168z" />
<glyph unicode="^" d="M185 1187.5q-3 20.5 8 31.5l243 251q10 10 21.5 17.5t40.5 7.5h127q27 0 38 -7t21 -18l244 -251q10 -10 6 -31t-33 -21h-192q-23 0 -39.5 11.5t-24.5 21.5l-72 90q-14 20 -28 0l-72 -90q-8 -10 -24.5 -21.5t-38.5 -11.5h-195q-27 0 -30 20.5z" />
<glyph unicode="_" d="M-47 -41q0 16 12 28.5t29 12.5h1141q16 0 28.5 -12.5t12.5 -28.5v-121q0 -16 -12.5 -28.5t-28.5 -12.5h-1141q-16 0 -28.5 12.5t-12.5 28.5v121z" />
<glyph unicode="`" d="M322 1476.5q6 18.5 34 18.5h219q23 0 34.5 -11t19.5 -22l168 -233q18 -25 6 -43.5t-33 -18.5h-141q-29 0 -40 7.5t-22 17.5l-235 248q-16 18 -10 36.5z" />
<glyph unicode="a" d="M141 315q0 53 21.5 109.5t65.5 103.5t111 77t155 30h208q20 0 21 20v33q0 63 -45 94t-113 31q-16 0 -39.5 -3t-46 -11t-39 -23.5t-16.5 -40.5q0 -27 -13.5 -33t-41.5 -6h-148q-16 0 -28.5 12.5t-12.5 28.5q0 61 28 116.5t78 98.5t123.5 69t165.5 26q186 0 298 -95.5 t112 -275.5v-635q0 -16 -12 -28.5t-29 -12.5h-102q-16 0 -29 14q-10 12 -15 26.5t-26 14.5q-14 0 -32.5 -12t-47 -26.5t-68.5 -27t-98 -12.5q-180 0 -282.5 88.5t-102.5 249.5zM391 315q0 -57 40 -82.5t95 -25.5q88 0 147.5 30.5t59.5 110.5v49q0 20 -20 21h-217 q-33 0 -53.5 -11.5t-32 -28t-15.5 -33.5t-4 -30z" />
<glyph unicode="b" d="M160 41v1372q0 16 12 28.5t29 12.5h184q16 0 28.5 -12t12.5 -29v-348q0 -35 19.5 -44t41.5 1q23 10 49.5 17.5t73.5 7.5q80 0 148.5 -30t120 -81t83 -121t37.5 -149q2 -31 3.5 -71t1.5 -83t-1.5 -83t-3.5 -71q-6 -80 -37.5 -149.5t-83 -120.5t-120 -81t-148.5 -30 q-57 0 -91 11.5t-57.5 24t-39.5 23.5t-39 11q-16 0 -28.5 -11t-22.5 -22q-14 -14 -29 -14h-102q-16 0 -28.5 12.5t-12.5 28.5zM420 512q0 -43 1 -83t3 -71q4 -53 42 -87.5t114 -34.5q74 0 111.5 35.5t41.5 86.5q2 31 3 71t1 83t-1 83t-3 71q-4 51 -42 86.5t-111 35.5 q-76 0 -114 -31.5t-42 -90.5q-2 -31 -3 -71t-1 -83z" />
<glyph unicode="c" d="M137 512q0 43 2 83t6 71q10 80 42 149.5t86.5 120.5t129 81t168.5 30q84 0 160 -27t133.5 -79t91 -127t33.5 -169q0 -16 -9 -28.5t-26 -12.5h-182q-14 0 -25.5 8.5t-13.5 24.5q-4 76 -48 109.5t-116 33.5q-78 0 -113.5 -27.5t-43.5 -86.5q-4 -31 -6.5 -71t-2.5 -83 t2.5 -83t6.5 -71q6 -53 43.5 -83.5t115.5 -30.5q68 0 109 29.5t53 113.5q6 33 39 33h182q16 0 25.5 -12.5t9.5 -28.5q0 -94 -33.5 -168t-91 -126t-133.5 -80t-160 -28q-94 0 -168.5 30t-129 81t-86 121t-42.5 149q-4 31 -6 71t-2 83z" />
<glyph unicode="d" d="M121 512q0 43 1 83t3 71q6 80 38 149.5t83 120.5t119.5 81t148.5 30q47 0 73.5 -7.5t49.5 -17.5t42 -1t19 44v348q0 16 12.5 28.5t28.5 12.5h185q16 0 28.5 -12t12.5 -29v-1372q0 -16 -12.5 -28.5t-28.5 -12.5h-103q-14 0 -28 14q-10 10 -22.5 21.5t-29.5 11.5 q-23 0 -39 -11t-39.5 -23.5t-57.5 -24t-91 -11.5q-80 0 -148.5 30t-119.5 81t-83 121t-38 149q-2 31 -3 71t-1 83zM387 512q0 -43 1 -83t3 -71q4 -51 42 -86.5t112 -35.5q76 0 113.5 34.5t41.5 87.5q2 31 3.5 71t1.5 83t-1.5 83t-3.5 71q-4 59 -41.5 90.5t-113.5 31.5 q-74 0 -112 -35.5t-42 -86.5q-2 -31 -3 -71t-1 -83z" />
<glyph unicode="e" d="M137 512q0 43 2 83t6 71q10 80 42 149.5t86.5 120.5t128 81t167.5 30q92 0 169 -27t132.5 -79t86 -127t30.5 -173v-170q0 -16 -12 -28.5t-29 -12.5h-526q-31 0 -31 -31q0 -86 53.5 -130t126.5 -44q59 0 100.5 18.5t61.5 67.5q14 35 47 35h170q16 0 28.5 -10t6.5 -35 q-35 -143 -138.5 -233.5t-275.5 -90.5q-94 0 -167.5 30t-128 81t-86 121t-42.5 149q-4 31 -6 71t-2 83zM391 676q0 -18 21 -19h311q20 0 20 19q0 33 -14 57.5t-38.5 39.5t-56.5 23.5t-65 8.5q-88 0 -133 -35t-45 -94z" />
<glyph unicode="f" d="M102 813v164q0 16 12.5 28.5t28.5 12.5h226q20 0 20 20v41q0 80 31 148.5t84 119t123.5 79t150.5 28.5h185q16 0 28.5 -12t12.5 -29v-184q0 -16 -12.5 -28.5t-28.5 -12.5h-185q-51 0 -87 -31t-36 -82v-37q0 -20 21 -20h307q16 0 28.5 -12.5t12.5 -28.5v-164 q0 -16 -12.5 -28.5t-28.5 -12.5h-307q-20 0 -21 -20v-711q0 -16 -12 -28.5t-29 -12.5h-184q-16 0 -28.5 12.5t-12.5 28.5v711q0 20 -20 20h-226q-16 0 -28.5 12.5t-12.5 28.5z" />
<glyph unicode="g" d="M141 512q0 43 1 83t3 71q6 80 38 149.5t83 120.5t120 81t149 30q57 0 90.5 -11.5t57.5 -24t40 -23.5t39 -11q16 0 28.5 11t22.5 22q14 14 29 14h102q16 0 28.5 -12.5t12.5 -28.5v-1044q0 -78 -30.5 -146.5t-84 -121t-128 -82t-160.5 -29.5q-82 0 -155 24.5t-128 69.5 t-88 107.5t-33 136.5q0 16 12.5 28.5t28.5 12.5h154q37 0 43 -12.5t10 -35.5q8 -37 45 -62.5t98 -25.5q57 0 103.5 34t46.5 102v20q0 49 -34 49q-12 0 -28 -6q-23 -8 -49 -16.5t-73 -8.5q-80 0 -149 30t-120 81t-82.5 121t-38.5 149q-2 31 -3 71t-1 83zM408 512q0 -43 1 -83 t3 -71q4 -51 42 -86.5t111 -35.5q76 0 114 34.5t42 87.5q2 31 3 71t1 83t-1 83t-3 71q-4 59 -42 90.5t-114 31.5q-74 0 -111.5 -35.5t-41.5 -86.5q-2 -31 -3 -71t-1 -83z" />
<glyph unicode="h" d="M154 41v1372q0 16 12 28.5t29 12.5h184q16 0 28.5 -12t12.5 -29v-348q0 -27 16.5 -40t44.5 -3q23 8 49.5 16.5t73.5 8.5q80 0 151.5 -30t124 -81t83 -121t30.5 -149v-625q0 -16 -12 -28.5t-29 -12.5h-184q-16 0 -28.5 12.5t-12.5 28.5v625q0 51 -40 86.5t-114 35.5 t-113.5 -35.5t-39.5 -86.5v-625q0 -16 -12.5 -28.5t-28.5 -12.5h-184q-16 0 -28.5 12.5t-12.5 28.5z" />
<glyph unicode="i" d="M184 41v184q0 16 12.5 28.5t28.5 12.5h226q20 0 20 21v456q0 20 -20 21h-205q-16 0 -28.5 12t-12.5 29v178q0 16 12 28.5t29 12.5h459q14 0 23 -10t9 -23v-704q0 -20 21 -21h225q16 0 28.5 -12t12.5 -29v-184q0 -16 -12.5 -28.5t-28.5 -12.5h-758q-16 0 -28.5 12.5 t-12.5 28.5zM463 1200v221q0 12 9 22.5t24 10.5h221q14 0 23.5 -10t9.5 -23v-221q0 -33 -33 -33h-221q-33 0 -33 33z" />
<glyph unicode="j" d="M106 -61q0 16 12.5 28.5t28.5 12.5h185q16 0 28.5 -12.5t12.5 -28.5q0 -51 35.5 -78t87.5 -27q51 0 86.5 26.5t35.5 78.5v800q0 20 -20 21h-246q-16 0 -28.5 12t-12.5 29v182q0 16 12.5 28.5t28.5 12.5h500q14 0 23.5 -10t9.5 -23v-1057q0 -80 -31 -147.5t-84 -115.5 t-124 -75.5t-150 -27.5q-80 0 -151 27.5t-124 78t-84 118t-31 147.5zM610 1200v221q0 12 9.5 22.5t23.5 10.5h221q14 0 23.5 -10t9.5 -23v-221q0 -33 -33 -33h-221q-33 0 -33 33z" />
<glyph unicode="k" d="M178 41v1372q0 16 12.5 28.5t28.5 12.5h184q16 0 28.5 -12t12.5 -29v-715q0 -10 8.5 -11t12.5 5l299 305q8 8 18.5 17.5t32.5 9.5h203q33 0 41 -25.5t-8 -42.5l-367 -378q-14 -14 -14 -29q0 -16 16 -33l395 -448q11 -12 11 -26q0 -9 -4 -18q-11 -24 -39 -24h-213 q-23 0 -34 11.5t-20 19.5l-317 354q-4 6 -12.5 5t-8.5 -11v-338q0 -16 -12 -28.5t-29 -12.5h-184q-16 0 -28.5 12.5t-12.5 28.5z" />
<glyph unicode="l" d="M164 41v184q0 16 12 28.5t29 12.5h225q20 0 21 21v887q0 20 -21 20h-205q-16 0 -28.5 12.5t-12.5 28.5v178q0 16 12.5 28.5t28.5 12.5h459q14 0 23.5 -10t9.5 -23v-1134q0 -20 20 -21h246q16 0 28.5 -12t12.5 -29v-184q0 -16 -12.5 -28.5t-28.5 -12.5h-778 q-16 0 -28.5 12.5t-12.5 28.5z" />
<glyph unicode="m" d="M55 41v942q0 16 12.5 28.5t28.5 12.5h62q18 0 26.5 -6t14.5 -14t13 -14.5t24 -6.5q12 0 26 9t34.5 21.5t47.5 21.5t66 9q41 0 77.5 -9t71.5 -42q12 -12 27 -12q14 0 24 10q41 33 85 43t104 10q66 0 116 -26.5t84.5 -70.5t52 -103.5t17.5 -126.5v-676q0 -16 -12.5 -28.5 t-28.5 -12.5h-164q-16 0 -28.5 12.5t-12.5 28.5v696q0 29 -21.5 50.5t-49.5 21.5q-29 0 -50.5 -21.5t-21.5 -50.5v-696q0 -16 -12.5 -28.5t-28.5 -12.5h-154q-16 0 -28.5 12.5t-12.5 28.5v696q0 29 -21.5 50.5t-49.5 21.5q-29 0 -50.5 -21.5t-21.5 -50.5v-696 q0 -16 -12.5 -28.5t-28.5 -12.5h-164q-16 0 -28.5 12.5t-12.5 28.5z" />
<glyph unicode="n" d="M143 41v942q0 16 12.5 28.5t28.5 12.5h103q18 0 28.5 -7t18.5 -18q10 -10 19.5 -17t25.5 -7q23 0 43 11t46 24.5t57.5 25t78.5 11.5q80 0 149.5 -30t121 -81t80 -121t28.5 -149v-625q0 -16 -12.5 -28.5t-28.5 -12.5h-184q-16 0 -28.5 12.5t-12.5 28.5v627q0 51 -40 85.5 t-114 34.5q-72 0 -112.5 -32.5t-40.5 -79.5v-635q0 -16 -12.5 -28.5t-28.5 -12.5h-185q-16 0 -28.5 12.5t-12.5 28.5z" />
<glyph unicode="o" d="M129 512q0 43 2 83t6 71q10 80 42 149.5t86 120.5t128 81t168 30t169 -30t128 -81t86 -121t43 -149q4 -31 6 -71t2 -83t-2 -83t-6 -71q-10 -80 -42 -149.5t-86 -120.5t-128 -81t-168 -30t-169 30t-129 81t-86 121t-42 149q-4 31 -6 71t-2 83zM393 512q0 -43 3 -83t7 -71 q8 -53 44 -83.5t114 -30.5t115 31.5t45 82.5q4 31 6 71t2 83t-2 83t-6 71q-8 51 -45 82.5t-115 31.5t-112.5 -27.5t-45.5 -86.5q-4 -31 -7 -71t-3 -83z" />
<glyph unicode="p" d="M160 -369v1352q0 16 12 28.5t29 12.5h102q14 0 29 -14q10 -10 22.5 -21.5t28.5 -11.5q23 0 39 11t39.5 23.5t57.5 24t91 11.5q80 0 148.5 -30t120 -81t83 -121t37.5 -149q2 -31 3.5 -71t1.5 -83t-1.5 -83t-3.5 -71q-6 -80 -37.5 -149.5t-83 -120.5t-120 -81t-148.5 -30 q-47 0 -73.5 7.5t-49.5 17.5t-42 1t-19 -44v-328q0 -16 -12.5 -28.5t-28.5 -12.5h-184q-16 0 -28.5 12.5t-12.5 28.5zM420 512q0 -43 1 -83t3 -71q4 -59 42 -90.5t114 -31.5q74 0 111.5 35.5t41.5 86.5q2 31 3 71t1 83t-1 83t-3 71q-4 51 -41.5 86.5t-111.5 35.5 q-76 0 -114 -34.5t-42 -87.5q-2 -31 -3 -71t-1 -83z" />
<glyph unicode="q" d="M121 512q0 43 1 83t3 71q6 80 38 149.5t83 120.5t119.5 81t148.5 30q57 0 91 -11.5t57.5 -24t40 -23.5t38.5 -11q16 0 28.5 11t23.5 22q14 14 28 14h103q16 0 28.5 -12.5t12.5 -28.5v-1352q0 -16 -12.5 -28.5t-28.5 -12.5h-185q-16 0 -28.5 12.5t-12.5 28.5v328 q0 35 -19.5 44t-41.5 -1q-23 -10 -49.5 -17.5t-73.5 -7.5q-80 0 -148.5 30t-119.5 81t-83 121t-38 149q-2 31 -3 71t-1 83zM387 512q0 -43 1 -83t3 -71q4 -51 42 -86.5t112 -35.5q76 0 113.5 31.5t41.5 90.5q2 31 3.5 71t1.5 83t-1.5 83t-3.5 71q-4 53 -41.5 87.5 t-113.5 34.5q-74 0 -112 -35.5t-42 -86.5q-2 -31 -3 -71t-1 -83z" />
<glyph unicode="r" d="M178 41v942q0 16 12.5 28.5t28.5 12.5h103q18 0 29 -7t22 -16q10 -10 20 -17t27 -7q25 0 43 11t42.5 23.5t60.5 24t93 11.5q80 0 147.5 -26t117 -73t77 -113.5t27.5 -146.5q0 -16 -12 -28.5t-29 -12.5h-184q-16 0 -28.5 12.5t-12.5 28.5q0 51 -44 78t-110 27t-115 -29 t-49 -94v-629q0 -16 -12 -28.5t-29 -12.5h-184q-16 0 -28.5 12.5t-12.5 28.5z" />
<glyph unicode="s" d="M127 336q0 16 12.5 28.5t28.5 12.5h156q37 0 47 -12.5t14 -38.5q6 -59 57.5 -83t122.5 -24q84 0 136.5 24.5t52.5 71.5q0 27 -16.5 43.5t-43 26.5t-60.5 15.5t-69 9.5q-63 6 -135 24.5t-133 56t-102 97t-41 149.5q0 68 36.5 125.5t95 98t132.5 63.5t147 23 q76 0 149.5 -20.5t130 -60.5t91.5 -99.5t35 -139.5q0 -29 -12.5 -40t-28.5 -11h-154q-16 0 -29.5 9t-17.5 42q-8 51 -57 72.5t-107 21.5q-70 0 -117 -20.5t-47 -63.5q0 -23 13.5 -38t37 -24t53.5 -14.5t60 -11.5q68 -12 143.5 -27.5t140 -49t107.5 -95t43 -166.5 q0 -76 -34.5 -137t-94 -105t-138.5 -68t-167 -24q-84 0 -162.5 19.5t-140 62.5t-98.5 112t-37 165z" />
<glyph unicode="t" d="M43 813v164q0 16 12.5 28.5t28.5 12.5h201q20 0 20 20v314q0 16 12.5 28.5t28.5 12.5h184q16 0 28.5 -12.5t12.5 -28.5v-314q0 -20 21 -20h348q16 0 28.5 -12.5t12.5 -28.5v-164q0 -16 -12.5 -28.5t-28.5 -12.5h-348q-20 0 -21 -20v-404q0 -51 36 -77.5t87 -26.5t87 26.5 t36 77.5q0 16 12.5 28.5t28.5 12.5h184q16 0 28.5 -12t12.5 -29q0 -80 -30.5 -147.5t-84 -117.5t-124 -78t-150.5 -28t-150.5 28t-123.5 76t-84 115.5t-31 147.5v408q0 20 -20 20h-201q-16 0 -28.5 12.5t-12.5 28.5z" />
<glyph unicode="u" d="M143 358v625q0 16 12.5 28.5t28.5 12.5h185q16 0 28.5 -12.5t12.5 -28.5v-627q0 -51 39.5 -85.5t113.5 -34.5q72 0 113 32.5t41 79.5v635q0 16 12 28.5t29 12.5h184q16 0 28.5 -12.5t12.5 -28.5v-942q0 -16 -12.5 -28.5t-28.5 -12.5h-102q-18 0 -28.5 6t-18.5 14 q-10 8 -19.5 14.5t-25.5 6.5q-23 0 -42.5 -10.5t-42 -21.5t-54 -21.5t-77.5 -10.5q-80 0 -151.5 30t-123.5 81t-83 121t-31 149z" />
<glyph unicode="v" d="M66 977q-2 6 -2 12q0 9 6 19q10 16 34 16h205q29 0 39 -31l201 -583q4 -10 12 -10.5t12 10.5l205 583q10 31 39 31h205q25 0 35 -16q6 -10 6 -19q0 -6 -2 -12l-348 -946q-12 -31 -39 -31h-217q-27 0 -39 31z" />
<glyph unicode="w" d="M20 977q-1 5 -1 9q1 10 7 22q10 16 33 16h193q14 0 25.5 -7t13.5 -24l67 -532q2 -10 12.5 -9t12.5 9l66 307q6 31 38 31h140q31 0 39 -31l75 -307q4 -10 13.5 -9t11.5 9l68 532q2 16 13 23.5t25 7.5h193q25 0 34 -16q6 -11 6 -21q0 -5 -1 -10l-162 -946q-6 -31 -39 -31 h-223q-33 0 -39 31l-68 313q-4 10 -15 10t-13 -10l-58 -313q-6 -31 -38 -31h-224q-33 0 -39 31z" />
<glyph unicode="x" d="M102 20q-4 8 -4 17q0 14 11 31l272 442q8 12 9 21.5t-9 23.5l-238 401q-16 27 -6 47.5t39 20.5h191q23 0 32 -6t13 -14l141 -256q12 -25 25 0l141 256q4 8 13 14t32 6h190q29 0 39.5 -20.5t-6.5 -47.5l-242 -401q-10 -14 -9 -23.5t9 -21.5l271 -442q10 -17 10 -31 q0 -9 -4 -17q-10 -20 -39 -20h-207q-23 0 -32 6t-13 14l-153 291q-12 25 -25 0l-160 -291q-4 -8 -13 -14t-32 -6h-207q-29 0 -39 20z" />
<glyph unicode="y" d="M90 977q-2 6 -2 12q0 10 6 19q10 16 35 16h211q29 0 39 -31l180 -581q4 -12 12.5 -12.5t12.5 12.5l166 581q8 31 38 31h207q25 0 35 -16q6 -9 6 -19q0 -6 -2 -12l-481 -1356q-10 -31 -39 -31h-188q-25 0 -35 15.5t-4 32.5l143 382q4 14 5 21.5t-5 24.5z" />
<glyph unicode="z" d="M143 41v184q0 20 3.5 31.5t23.5 32.5l465 469q6 8 3 14t-13 6h-420q-16 0 -28.5 12.5t-12.5 28.5v164q0 16 12 28.5t29 12.5h713q16 0 28 -12.5t12 -28.5v-178q0 -29 -12 -48.5t-28 -35.5l-439 -455q-6 -8 -3 -14t13 -6h449q16 0 28.5 -12.5t12.5 -28.5v-164 q0 -16 -12.5 -28.5t-28.5 -12.5h-754q-16 0 -28.5 12.5t-12.5 28.5z" />
<glyph unicode="{" d="M219 614v82q0 16 12.5 25.5t28.5 15.5l23 11q14 6 25 15t11 25v256q0 84 34 162t95.5 137.5t145.5 95.5t186 36h148q16 0 28.5 -12.5t12.5 -28.5v-181q0 -16 -12.5 -28.5t-28.5 -12.5h-148q-35 0 -68.5 -8t-61 -26.5t-45 -51t-17.5 -82.5l-2 -256q0 -27 -9.5 -48 t-22.5 -38.5t-27.5 -28.5t-24.5 -18q10 -6 24.5 -18t27.5 -28.5t22.5 -38t9.5 -48.5v-276q0 -76 52 -122t142 -46h148q16 0 28.5 -12.5t12.5 -28.5v-180q0 -16 -12.5 -28.5t-28.5 -12.5h-148q-92 0 -176 29.5t-146.5 85t-100.5 135t-38 180.5v276q0 16 -11 25.5t-25 15.5 l-23 10q-16 6 -28.5 15.5t-12.5 25.5z" />
<glyph unicode="|" d="M434 -102v1536q0 16 12.5 28.5t28.5 12.5h174q16 0 28.5 -12.5t12.5 -28.5v-1536q0 -16 -12 -28.5t-29 -12.5h-174q-16 0 -28.5 12t-12.5 29z" />
<glyph unicode="}" d="M158 37q0 16 12 28.5t29 12.5h147q90 0 142.5 46t52.5 122v276q0 27 9 48.5t22.5 38t27.5 28.5t25 18q-10 6 -24.5 17.5t-28 29t-22.5 39t-9 47.5l-2 256q0 49 -17.5 82t-45 51.5t-61.5 26.5t-69 8h-147q-16 0 -28.5 12.5t-12.5 28.5v181q0 16 12 28.5t29 12.5h147 q100 0 185 -36t146.5 -95.5t95.5 -137.5t34 -162v-256q0 -16 11 -25t26 -15l22 -11q16 -6 28.5 -15t12.5 -26v-82q0 -16 -12 -25t-29 -16l-22 -10q-14 -6 -25.5 -15t-11.5 -26v-276q0 -100 -38 -180t-100.5 -135.5t-146.5 -85t-176 -29.5h-147q-16 0 -28.5 12t-12.5 29v180z " />
<glyph unicode="~" d="M102 416v164q0 27 21.5 50t54.5 39.5t73 26t79 9.5q80 0 132 -14.5t98 -32t99.5 -32t137.5 -14.5q16 0 41.5 4.5t50 11.5t46 17t30.5 21q16 20 37.5 16t21.5 -35v-164q0 -29 -21.5 -51t-54.5 -38.5t-72.5 -26t-78.5 -9.5q-80 0 -132.5 14.5t-98.5 32t-100 32t-136 14.5 q-16 0 -42 -4.5t-50.5 -11.5t-46 -17t-29.5 -21q-16 -20 -38 -16t-22 35z" />
<glyph unicode="&#xa0;" />
<glyph unicode="&#xa1;" d="M399 737v246q0 16 12.5 28.5t28.5 12.5h246q16 0 28.5 -12.5t12.5 -28.5v-246q0 -16 -12.5 -28.5t-28.5 -12.5h-246q-16 0 -28.5 12.5t-12.5 28.5zM420 -377v924q0 12 9 22.5t24 10.5h221q14 0 23.5 -10.5t9.5 -22.5v-924q0 -12 -9.5 -22.5t-23.5 -10.5h-221 q-14 0 -23.5 10.5t-9.5 22.5z" />
<glyph unicode="&#xa2;" d="M135 512q0 43 2 83t6 71q16 125 83 223t186 139q14 4 23 10t9 21v67q0 16 12.5 28.5t28.5 12.5h174q16 0 28.5 -12t12.5 -29v-67q0 -25 29 -35q113 -41 186.5 -138.5t73.5 -240.5q0 -16 -9 -28.5t-26 -12.5h-182q-14 0 -25.5 8.5t-13.5 24.5q-4 76 -49 113.5t-117 37.5 q-78 0 -113.5 -31.5t-43.5 -90.5q-4 -31 -6.5 -71t-2.5 -83t2.5 -83t6.5 -71q6 -53 44 -87.5t115 -34.5q68 0 110 33.5t54 117.5q6 33 39 33h182q16 0 25.5 -12.5t9.5 -28.5q0 -141 -72.5 -238.5t-185.5 -142.5q-31 -12 -31 -35v-65q0 -16 -12 -28.5t-29 -12.5h-174 q-16 0 -28.5 12t-12.5 29v67q0 14 -9 20.5t-23 10.5q-117 41 -184.5 139t-84.5 223q-4 31 -6 71t-2 83z" />
<glyph unicode="&#xa3;" d="M82 41v188q0 16 12 28.5t29 12.5q47 0 74.5 14.5t43 39t20.5 55.5t5 65v144q0 10 -5 17t-15 7h-84q-16 0 -28.5 12.5t-12.5 28.5v154q0 16 12 28.5t29 12.5h84q20 0 20 20v217q0 78 30 146.5t81 119t120.5 80t147.5 29.5t147.5 -29.5t121 -80t81 -119t29.5 -146.5v-41 q0 -16 -12.5 -28t-28.5 -12h-186q-16 0 -28.5 12t-12.5 28v41q0 41 -28 73t-83 32t-81.5 -32t-26.5 -73v-217q0 -20 20 -20h246q16 0 28.5 -12.5t12.5 -28.5v-154q0 -16 -12.5 -28.5t-28.5 -12.5h-244q-10 0 -15 -7t-5 -17v-88q0 -88 -10.5 -135.5t-24.5 -71.5 q-14 -23 14 -23h486q16 0 28 -12t12 -29v-188q0 -16 -12 -28.5t-28 -12.5h-879q-18 0 -30.5 12.5t-12.5 28.5z" />
<glyph unicode="&#xa4;" d="M-1 1017.5q1 16.5 13 26.5l133 134q10 12 26.5 13t29.5 -11l155 -158q45 23 96.5 36t106.5 13q111 0 207 -51l158 158q12 12 28.5 11t28.5 -11l133 -134q10 -12 11 -28.5t-11 -28.5l-160 -162q23 -45 35 -94t12 -102q0 -55 -13 -105.5t-36 -95.5l164 -164 q12 -12 11 -28.5t-13 -26.5l-133 -133q-10 -12 -26.5 -13.5t-28.5 11.5l-164 162q-47 -23 -97.5 -36.5t-105.5 -13.5q-109 0 -199 47l-157 -157q-12 -12 -28.5 -11t-29.5 11l-133 133q-10 12 -11 28.5t11 28.5l156 156q-51 96 -51 207t49 200l-156 160q-12 12 -11 28.5z M352 629q0 -43 16.5 -80t45 -65.5t65.5 -45t80 -16.5t81 16.5t66.5 45t45 65.5t16.5 80t-16.5 81t-45 66.5t-66.5 45t-81 16.5t-80 -16.5t-65.5 -45t-45 -66.5t-16.5 -81z" />
<glyph unicode="&#xa5;" d="M57 1376q-10 23 1.5 40.5t31.5 17.5h219q29 0 39 -31l203 -567q2 -8 10 -9h4q8 0 10 9l203 567q10 31 39 31h219q20 0 31.5 -17.5t1.5 -40.5l-168 -413h74q16 0 28.5 -12.5t12.5 -28.5v-138q0 -16 -12.5 -28.5t-28.5 -12.5h-162l-35 -86h197q16 0 28.5 -12t12.5 -29v-137 q0 -16 -12.5 -28.5t-28.5 -12.5h-275v-397q0 -16 -12 -28.5t-29 -12.5h-192q-16 0 -28.5 12.5t-12.5 28.5v397h-276q-16 0 -28.5 12.5t-12.5 28.5v137q0 16 12 28.5t29 12.5h196l-35 86h-161q-16 0 -28.5 12.5t-12.5 28.5v138q0 16 12 28.5t29 12.5h73z" />
<glyph unicode="&#xa6;" d="M444 41v547q0 16 12.5 28.5t28.5 12.5h156q16 0 28.5 -12.5t12.5 -28.5v-547q0 -16 -12.5 -28.5t-28.5 -12.5h-156q-16 0 -28.5 12.5t-12.5 28.5zM444 860v547q0 16 12.5 28.5t28.5 12.5h156q16 0 28.5 -12.5t12.5 -28.5v-547q0 -16 -12.5 -28.5t-28.5 -12.5h-156 q-16 0 -28.5 12.5t-12.5 28.5z" />
<glyph unicode="&#xa7;" d="M109 621q0 80 46 145t111 117q-66 92 -65 200q0 86 32.5 153t86 111t121 67.5t137.5 23.5q76 0 143 -26t117.5 -73t79 -114.5t28.5 -149.5v-28q0 -18 -12 -30.5t-29 -12.5h-172q-16 0 -28.5 12t-12.5 31v28q0 45 -30.5 76t-83.5 31q-47 0 -79 -23.5t-32 -66.5 q0 -70 49 -109l367 -317q133 -117 133 -289q0 -84 -44 -154.5t-104 -120.5q57 -76 58 -188q0 -84 -33 -148.5t-86 -108.5t-121 -66.5t-137 -22.5q-76 0 -144.5 22.5t-120 66.5t-82 111.5t-30.5 159.5v49q0 18 12.5 30.5t28.5 12.5h172q16 0 28.5 -12t12.5 -31v-49 q0 -53 34 -79.5t89 -26.5q47 0 77.5 21.5t30.5 70.5q0 29 -16 52.5t-39 43.5q-84 72 -184.5 158t-181.5 162q-68 63 -97.5 128.5t-29.5 162.5zM373 610q0 -20 9 -41.5t36 -44.5l258 -223q16 -14 25.5 -9t13.5 9q41 41 41 78q0 18 -9.5 42.5t-35.5 47.5l-260 227 q-16 14 -25.5 9t-13.5 -9q-16 -20 -27.5 -41.5t-11.5 -44.5z" />
<glyph unicode="&#xa8;" d="M223 1229v184q0 16 12.5 28.5t28.5 12.5h185q16 0 28 -12t12 -29v-184q0 -16 -12 -28.5t-28 -12.5h-185q-16 0 -28.5 12t-12.5 29zM633 1229v184q0 16 12 28.5t29 12.5h184q16 0 28.5 -12t12.5 -29v-184q0 -16 -12.5 -28.5t-28.5 -12.5h-184q-16 0 -28.5 12t-12.5 29z " />
<glyph unicode="&#xa9;" d="M37 717q0 109 41 205t112.5 166.5t168 111.5t204.5 41q109 0 205 -41t167 -111.5t111.5 -167t40.5 -204.5q0 -109 -40.5 -205t-111.5 -168t-167 -113t-205 -41t-205 41t-167.5 113t-112.5 168t-41 205zM190 717q0 -78 29 -145.5t80 -119t118.5 -80t145.5 -28.5 q76 0 143.5 28.5t119 80t80 119t28.5 145.5q0 76 -28.5 143.5t-80 118.5t-119 79.5t-143.5 28.5q-78 0 -145.5 -28.5t-118.5 -79.5t-80 -118.5t-29 -143.5zM334 710.5q0 28.5 4 63.5q6 94 61.5 163t163.5 69q98 0 155.5 -60.5t57.5 -148.5q0 -23 -18 -23h-94q-8 0 -15.5 3 t-7.5 14q0 43 -22.5 63t-55.5 20q-80 0 -90 -100q-4 -39 -4 -63.5t4 -63.5q4 -47 26.5 -74.5t63.5 -27.5q31 0 53.5 20.5t22.5 63.5q0 10 7 14t18 4h88q10 0 17 -6t7 -16q0 -88 -57 -148.5t-156 -60.5q-109 0 -163 67.5t-62 163.5q-4 35 -4 63.5z" />
<glyph unicode="&#xaa;" d="M193 1085q0 27 11 54.5t32.5 51t54.5 39t78 15.5h125q10 0 10 10v17q0 31 -21.5 43t-56.5 12q-16 0 -42 -6t-36 -27q-6 -12 -10 -15t-19 -3h-88q-20 0 -20 20q0 70 63.5 112t155.5 42q43 0 82 -10t69.5 -33t49 -57.5t18.5 -83.5v-318q0 -20 -20 -20h-66q-8 0 -14 6 q-4 6 -7 13t-14 7q-14 0 -50 -19.5t-93 -19.5q-90 0 -141 44.5t-51 125.5zM340 1085q0 -23 16.5 -34t44.5 -11q35 0 69 12.5t34 45.5v20q0 8 -8 8h-111q-27 0 -36 -16t-9 -25z" />
<glyph unicode="&#xab;" d="M127 532.5q0 12.5 10 28.5l197 330q4 8 16 19.5t35 11.5h164q29 0 40 -17.5t-7 -50.5l-174 -297q-16 -23 0 -49l174 -297q18 -33 7 -50.5t-40 -17.5h-164q-23 0 -35 11.5t-16 19.5l-197 330q-10 16 -10 28.5zM532.5 532.5q-0.5 12.5 10.5 28.5l196 330q4 8 16.5 19.5 t35.5 11.5h163q29 0 40.5 -17.5t-7.5 -50.5l-174 -297q-16 -23 0 -49l174 -297q18 -33 7 -50.5t-40 -17.5h-163q-23 0 -35.5 11.5t-16.5 19.5l-196 330q-10 16 -10.5 28.5z" />
<glyph unicode="&#xac;" d="M123 389v184q0 16 12 28.5t29 12.5h799q16 0 28.5 -12t12.5 -29v-389q0 -16 -12.5 -28.5t-28.5 -12.5h-185q-16 0 -28.5 12.5t-12.5 28.5v144q0 20 -20 20h-553q-16 0 -28.5 12.5t-12.5 28.5z" />
<glyph unicode="&#xad;" d="M242 446v203q0 16 12 28.5t29 12.5h559q16 0 28.5 -12t12.5 -29v-203q0 -16 -12.5 -28t-28.5 -12h-559q-16 0 -28.5 12t-12.5 28z" />
<glyph unicode="&#xae;" d="M27 717q0 109 41 205t112.5 166.5t167.5 111.5t205 41t205 -41t166.5 -111.5t111.5 -167t41 -204.5q0 -109 -41 -205t-111.5 -168t-166.5 -113t-205 -41t-205 41t-167.5 113t-112.5 168t-41 205zM180 717q0 -78 29 -145.5t80 -119t118.5 -80t145.5 -28.5q76 0 143.5 28.5 t118.5 80t80 119t29 145.5q0 76 -29 143.5t-80 118.5t-118.5 79.5t-143.5 28.5q-78 0 -145.5 -28.5t-118.5 -79.5t-80 -118.5t-29 -143.5zM371 465v506q0 10 6 16t12 6h207q37 0 68.5 -14t56 -39t38 -56.5t13.5 -68.5q0 -47 -21.5 -85.5t-58.5 -61.5q-16 -10 -22 -13.5 t2 -19.5l84 -160q8 -12 3 -22.5t-22 -10.5h-84q-14 0 -20 6.5t-12 16.5l-78 156q-8 14 -19 14h-10q-4 0 -8 -3t-4 -7v-160q0 -23 -21 -23h-92q-6 0 -12 6.5t-6 16.5zM502 778q0 -4 4 -6t8 -2h82q23 0 34 14.5t11 30.5t-11.5 30.5t-33.5 14.5h-82q-4 0 -8 -3t-4 -9v-70z" />
<glyph unicode="&#xaf;" d="M229 1262v118q0 16 12.5 28.5t28.5 12.5h537q16 0 28.5 -12t12.5 -29v-118q0 -16 -12.5 -28.5t-28.5 -12.5h-537q-16 0 -28.5 12t-12.5 29z" />
<glyph unicode="&#xb0;" d="M258 1198q0 63 23.5 118.5t65.5 96.5t97.5 64.5t118.5 23.5t118.5 -23.5t96.5 -64.5t64.5 -96t23.5 -119q0 -63 -23.5 -118.5t-64.5 -97.5t-96 -65.5t-119 -23.5q-63 0 -118.5 23.5t-97.5 65.5t-65.5 97.5t-23.5 118.5zM461 1198q0 -41 30.5 -71.5t71.5 -30.5t71 30.5 t30 71.5t-30 70.5t-71 29.5t-71.5 -29.5t-30.5 -70.5z" />
<glyph unicode="&#xb1;" d="M113 766v182q0 16 12 28.5t29 12.5h256q20 0 20 21v256q0 16 12.5 28.5t28.5 12.5h182q16 0 28.5 -12.5t12.5 -28.5v-256q0 -20 21 -21h258q16 0 28.5 -12t12.5 -29v-182q0 -16 -12.5 -28.5t-28.5 -12.5h-258q-20 0 -21 -20v-259q0 -16 -12 -28t-29 -12h-182 q-16 0 -28.5 12t-12.5 28v259q0 20 -20 20h-256q-16 0 -28.5 12.5t-12.5 28.5zM119 41v182q0 16 12 28.5t29 12.5h807q16 0 28.5 -12t12.5 -29v-182q0 -16 -12.5 -28.5t-28.5 -12.5h-807q-16 0 -28.5 12.5t-12.5 28.5z" />
<glyph unicode="&#xb2;" d="M326 737v162q0 16 8 25l219 217q31 29 49.5 51.5t18.5 40.5t-14.5 33.5t-41.5 15.5q-37 0 -49 -19.5t-12 -41.5v-19q0 -20 -21 -20h-131q-8 0 -14 7t-6 13v17q0 49 18.5 91t51 72.5t75.5 48t90 17.5q98 0 166 -56.5t68 -154.5q0 -47 -26.5 -89t-47.5 -63l-172 -172 q-4 -4 -4 -13t16 -9h224q10 0 15 -7t5 -14v-133q0 -20 -20 -20h-445q-20 0 -20 20z" />
<glyph unicode="&#xb3;" d="M326 938v12q0 20 20 21h129q20 0 21 -21v-12q0 -29 18 -46.5t49 -17.5t49.5 18.5t18.5 53.5q0 37 -24.5 52.5t-45.5 15.5h-12q-20 0 -21 20v86q0 20 21 21h12q23 0 44.5 16.5t21.5 50.5q0 31 -17.5 49.5t-46.5 18.5q-27 0 -44 -17.5t-17 -39.5v-17q0 -20 -21 -20h-131 q-20 0 -20 20v17q0 47 18.5 89t51 72.5t74.5 49t89 18.5t89 -18.5t74 -49t50.5 -72.5t18.5 -89q0 -37 -14.5 -72t-35.5 -60q-8 -10 0 -14q29 -23 42.5 -60.5t13.5 -74.5q0 -49 -18.5 -92t-51.5 -75t-76 -50.5t-92 -18.5t-92 18.5t-74.5 50.5t-51 75t-19.5 92z" />
<glyph unicode="&#xb4;" d="M321.5 1185.5q-12.5 18.5 6.5 43.5l168 233q8 10 19 21.5t34 11.5h219q29 0 35 -18.5t-10 -36.5l-236 -248q-10 -10 -21.5 -17.5t-39.5 -7.5h-142q-20 0 -32.5 18.5z" />
<glyph unicode="&#xb5;" d="M143 -369q0 340 1 676t1 676q0 16 11.5 28.5t27.5 12.5h123q14 0 32.5 1t34 -2t26 -12.5t10.5 -27.5v-627q0 -51 39.5 -85.5t113.5 -34.5q72 0 113 32.5t41 79.5v635q0 16 12 28.5t29 12.5h184q16 0 28.5 -12.5t12.5 -28.5v-942q0 -16 -12.5 -28.5t-28.5 -12.5h-102 q-18 0 -28.5 6t-19 14.5t-18.5 14.5t-26 6q-20 0 -36 -9t-36.5 -21.5t-48 -21.5t-70.5 -9q-29 0 -49.5 7t-36.5 15q-23 10 -42 1t-19 -44v-328q0 -16 -12.5 -28.5t-28.5 -12.5h-185q-16 0 -28.5 12.5t-12.5 28.5z" />
<glyph unicode="&#xb6;" d="M102 1085q0 72 28 135.5t75 110.5t110.5 75t135.5 28h532q16 0 28.5 -12.5t12.5 -28.5v-1557q0 -16 -12.5 -28.5t-28.5 -12.5h-123q-16 0 -28.5 12.5t-12.5 28.5v1383q0 20 -20 20h-123q-20 0 -21 -20v-1383q0 -16 -12 -28.5t-29 -12.5h-122q-16 0 -28.5 12.5t-12.5 28.5 v881q-1 20 -21 20q-68 0 -127 29t-104 76t-71 110.5t-26 132.5z" />
<glyph unicode="&#xb7;" d="M375 375v293q0 16 12 28.5t29 12.5h293q16 0 28.5 -12.5t12.5 -28.5v-293q0 -16 -12.5 -28.5t-28.5 -12.5h-293q-16 0 -28.5 12t-12.5 29z" />
<glyph unicode="&#xb8;" d="M414 -330l59 189q14 49 66 49h110q49 0 58.5 -27.5t3.5 -52.5l-43 -188q-12 -49 -66 -50h-127q-49 0 -59 29t-2 51z" />
<glyph unicode="&#xb9;" d="M316 1278.5q-1 9.5 14 26.5l98 94q10 10 27.5 22.5t46.5 12.5h151q20 0 21 -21v-512q0 -10 10 -10h107q20 0 20 -21v-133q0 -20 -20 -20h-443q-20 0 -20 20v133q0 20 20 21h139q10 0 11 10v291q0 14 -10.5 15t-16.5 -5l-109 -82q-14 -10 -29.5 -2t-15.5 27v112 q0 12 -1 21.5z" />
<glyph unicode="&#xba;" d="M201 1181.5q0 22.5 4 53.5q6 55 29.5 97t56.5 70t71.5 41t77.5 13t78 -13t72 -41t56.5 -70t29.5 -97q4 -31 4 -53.5t-4 -51.5q-6 -53 -28.5 -94t-55.5 -68.5t-73 -42t-79 -14.5t-78.5 14.5t-72.5 42t-55.5 68.5t-28.5 94q-4 29 -4 51.5zM350 1139q6 -31 31 -50.5 t59 -19.5q35 0 59.5 19.5t30.5 50.5q6 41 0 84q-12 75 -90 75t-90 -75q-6 -43 0 -84z" />
<glyph unicode="&#xbb;" d="M130 160.5q-11 17.5 7 50.5l174 297q16 27 0 49l-174 297q-18 33 -7 50.5t40 17.5h164q23 0 35 -11.5t16 -19.5l197 -330q10 -16 10 -28.5t-10 -28.5l-197 -330q-4 -8 -16.5 -19.5t-34.5 -11.5h-164q-29 0 -40 17.5zM535 160.5q-11 17.5 8 50.5l174 297q16 27 0 49 l-174 297q-18 33 -7 50.5t39 17.5h164q23 0 35 -11.5t17 -19.5l196 -330q10 -16 10 -28.5t-10 -28.5l-196 -330q-4 -8 -16.5 -19.5t-35.5 -11.5h-164q-29 0 -40 17.5z" />
<glyph unicode="&#xbc;" d="M41 1083v136q0 12 2 23t14 22l154 145q8 8 20.5 16.5t30.5 8.5h139q20 0 21 -21v-676q0 -20 -21 -20h-147q-20 0 -21 20v439q0 10 -7 11t-11 -3l-139 -117q-10 -10 -22.5 -5t-12.5 21zM90 57l778 1346q18 31 45 31h99q20 0 32.5 -18.5t-0.5 -39.5l-776 -1345 q-18 -31 -43 -31h-102q-20 0 -32.5 17.5t-0.5 39.5zM526 133v141q0 10 5.5 19.5t11.5 19.5l258 389q8 14 20 15h142q20 0 20 -21v-409q0 -10 10 -11h45q20 0 21 -20v-123q0 -20 -21 -20h-45q-10 0 -10 -11v-82q0 -20 -20 -20h-123q-20 0 -21 20v82q0 10 -10 11h-262 q-20 0 -21 20zM711 289q-8 -12 6 -13h92q10 0 10 11v153q0 6 -4 7.5t-8 -3.5z" />
<glyph unicode="&#xbd;" d="M41 1083v136q0 12 2 23t14 22l154 145q8 8 20.5 16.5t30.5 8.5h139q20 0 21 -21v-676q0 -20 -21 -20h-147q-20 0 -21 20v439q0 10 -7 11t-11 -3l-139 -117q-10 -10 -22.5 -5t-12.5 21zM90 57l778 1346q18 31 45 31h99q20 0 32.5 -18.5t-0.5 -39.5l-776 -1345 q-18 -31 -43 -31h-102q-20 0 -32.5 17.5t-0.5 39.5zM612 20v162q0 16 9 25l219 217q31 29 49 51.5t18 40.5t-14 33.5t-41 15.5q-37 0 -49 -19.5t-12 -41.5v-19q0 -20 -21 -20h-131q-8 0 -14.5 7t-6.5 13v17q0 49 18.5 91t51.5 72.5t76 48t90 17.5q98 0 165.5 -56.5 t67.5 -154.5q0 -47 -26.5 -89t-46.5 -62l-172 -172q-4 -4 -4 -13.5t16 -9.5h223q10 0 15.5 -7t5.5 -13v-134q0 -20 -21 -20h-444q-20 0 -21 20z" />
<glyph unicode="&#xbe;" d="M39 930v10q0 20 20 21h129q20 0 21 -21v-10q0 -29 22.5 -48.5t57.5 -19.5q29 0 52.5 18.5t23.5 49.5q0 33 -17.5 55.5t-58.5 22.5h-13q-20 0 -20 20v111q0 20 20 20h13q35 0 51 19.5t16 50.5t-19.5 46t-47.5 15q-27 0 -47.5 -17.5t-20.5 -43.5v-15q0 -20 -20 -20h-131 q-20 0 -21 20v15q0 92 61.5 153.5t178.5 61.5q45 0 88 -13.5t75.5 -40t53 -67.5t20.5 -94q0 -45 -22.5 -81t-50.5 -52q-6 -4 -5 -9.5t5 -9.5q33 -18 58.5 -54t25.5 -93q0 -55 -20.5 -97t-55.5 -71t-80 -43t-92 -14q-127 0 -188.5 64.5t-61.5 160.5zM135 57l778 1346 q18 31 45 31h99q20 0 32.5 -18.5t0.5 -39.5l-777 -1345q-18 -31 -43 -31h-102q-20 0 -32.5 17.5t-0.5 39.5zM561 133v141q0 10 5 19.5t12 19.5l258 389q8 14 20 15h141q20 0 21 -21v-409q0 -10 10 -11h45q20 0 21 -20v-123q0 -20 -21 -20h-45q-10 0 -10 -11v-82 q0 -20 -21 -20h-123q-20 0 -20 20v82q0 10 -10 11h-262q-20 0 -21 20zM745 289q-8 -12 7 -13h92q10 0 10 11v153q0 6 -4 7.5t-8 -3.5z" />
<glyph unicode="&#xbf;" d="M131 -27q0 63 18.5 117.5t47 100t63.5 80t70 59.5q57 43 75.5 79.5t18.5 108.5v21q0 16 12.5 28.5t28.5 12.5h205q16 0 28.5 -12.5t12.5 -28.5v-21q0 -25 1 -54.5t-4.5 -63t-17.5 -68.5t-37 -68q-35 -43 -80 -72.5t-77 -60.5q-33 -31 -55.5 -69.5t-22.5 -73.5 q0 -66 42 -105t103 -39q70 0 109 45t39 105v35q0 16 12 28.5t29 12.5h204q16 0 28.5 -12.5t12.5 -28.5v-31q0 -90 -34.5 -170t-93 -139.5t-138.5 -94t-168 -34.5q-90 0 -169 30.5t-137 86t-92 131t-34 165.5zM403 737v246q0 16 12.5 28.5t28.5 12.5h246q16 0 28.5 -12.5 t12.5 -28.5v-246q0 -16 -12 -28.5t-29 -12.5h-246q-16 0 -28.5 12.5t-12.5 28.5z" />
<glyph unicode="&#xc0;" d="M20 41l367 1362q6 31 39 31h274q33 0 39 -31l365 -1362q4 -14 -6.5 -27.5t-34.5 -13.5h-215q-29 0 -39 31l-64 211q-4 12 -10 21t-20 9h-312q-25 0 -30 -30l-58 -211q-6 -31 -39 -31h-215q-25 0 -35 13.5t-6 27.5zM197 1845q6 19 34 19h220q23 0 34 -11.5t19 -21.5 l168 -234q18 -25 6 -43t-33 -18h-141q-29 0 -40 7t-22 18l-235 247q-16 18 -10 37zM451 582q-6 -23 16 -23h188q23 0 17 23l-99 491q-2 8 -10 8h-4q-8 0 -10 -8z" />
<glyph unicode="&#xc1;" d="M20 41l367 1362q6 31 39 31h274q33 0 39 -31l365 -1362q4 -14 -6.5 -27.5t-34.5 -13.5h-215q-29 0 -39 31l-64 211q-4 12 -10 21t-20 9h-312q-25 0 -30 -30l-58 -211q-6 -31 -39 -31h-215q-25 0 -35 13.5t-6 27.5zM428.5 1554.5q-12.5 18.5 5.5 42.5l168 234 q8 10 19.5 21.5t33.5 11.5h219q29 0 35 -18.5t-10 -37.5l-235 -247q-10 -10 -21.5 -17.5t-40.5 -7.5h-141q-20 0 -32.5 18.5zM451 582q-6 -23 16 -23h188q23 0 17 23l-99 491q-2 8 -10 8h-4q-8 0 -10 -8z" />
<glyph unicode="&#xc2;" d="M20 41l367 1362q6 31 39 31h274q33 0 39 -31l365 -1362q4 -14 -6.5 -27.5t-34.5 -13.5h-215q-29 0 -39 31l-64 211q-4 12 -10 21t-20 9h-312q-25 0 -30 -30l-58 -211q-6 -31 -39 -31h-215q-25 0 -35 13.5t-6 27.5zM193 1556.5q-3 20.5 8 30.5l243 252q10 10 21.5 17.5 t40.5 7.5h127q27 0 38 -7.5t21 -17.5l244 -252q10 -10 6 -30.5t-33 -20.5h-192q-23 0 -39 11.5t-25 21.5l-71 90q-14 20 -29 0l-72 -90q-8 -10 -24.5 -21.5t-38.5 -11.5h-195q-27 0 -30 20.5zM451 582q-6 -23 16 -23h188q23 0 17 23l-99 491q-2 8 -10 8h-4q-8 0 -10 -8z" />
<glyph unicode="&#xc3;" d="M20 41l367 1362q6 31 39 31h274q33 0 39 -31l365 -1362q4 -14 -6.5 -27.5t-34.5 -13.5h-215q-29 0 -39 31l-64 211q-4 12 -10 21t-20 9h-312q-25 0 -30 -30l-58 -211q-6 -31 -39 -31h-215q-25 0 -35 13.5t-6 27.5zM238 1593v123q0 41 42 73t103 32q49 0 93 -8.5t88 -17.5 t89.5 -17.5t98.5 -8.5q39 0 60.5 13.5t33.5 29.5t31.5 8t19.5 -36v-123q0 -41 -42 -73t-103 -32q-49 0 -93.5 8.5t-88.5 17.5t-90 17.5t-97 8.5q-35 0 -56.5 -11.5t-37.5 -31.5q-12 -14 -31.5 -7t-19.5 35zM451 582q-6 -23 16 -23h188q23 0 17 23l-99 491q-2 8 -10 8h-4 q-8 0 -10 -8z" />
<glyph unicode="&#xc4;" d="M20 41l367 1362q6 31 39 31h274q33 0 39 -31l365 -1362q4 -14 -6.5 -27.5t-34.5 -13.5h-215q-29 0 -39 31l-64 211q-4 12 -10 21t-20 9h-312q-25 0 -30 -30l-58 -211q-6 -31 -39 -31h-215q-25 0 -35 13.5t-6 27.5zM225 1597v185q0 16 12.5 28.5t28.5 12.5h185 q16 0 28.5 -12.5t12.5 -28.5v-185q0 -16 -12.5 -28.5t-28.5 -12.5h-185q-16 0 -28.5 12.5t-12.5 28.5zM451 582q-6 -23 16 -23h188q23 0 17 23l-99 491q-2 8 -10 8h-4q-8 0 -10 -8zM635 1597v185q0 16 12 28.5t29 12.5h184q16 0 28.5 -12.5t12.5 -28.5v-185q0 -16 -12 -28.5 t-29 -12.5h-184q-16 0 -28.5 12.5t-12.5 28.5z" />
<glyph unicode="&#xc5;" d="M20 41l367 1362q6 31 39 31h274q33 0 39 -31l365 -1362q4 -14 -6.5 -27.5t-34.5 -13.5h-215q-29 0 -39 31l-64 211q-4 12 -10 21t-20 9h-312q-25 0 -30 -30l-58 -211q-6 -31 -39 -31h-215q-25 0 -35 13.5t-6 27.5zM326 1741q0 49 18 92t51 74.5t76 50t92 18.5t92 -18.5 t75 -50t50.5 -74.5t18.5 -92t-18.5 -92t-50.5 -76t-75 -51.5t-92 -18.5t-92 18.5t-76 51.5t-51 76t-18 92zM451 582q-6 -23 16 -23h188q23 0 17 23l-99 491q-2 8 -10 8h-4q-8 0 -10 -8zM498 1741q0 -29 18.5 -47.5t46.5 -18.5q29 0 47.5 18.5t18.5 47.5t-18.5 47t-47.5 18 t-47 -18t-18 -47z" />
<glyph unicode="&#xc6;" d="M10 41l361 1339q4 14 20.5 34t48.5 20h637q16 0 28.5 -12.5t12.5 -28.5v-205q0 -16 -12 -28.5t-29 -12.5h-209q-20 0 -20 -21v-245q0 -20 20 -21h193q16 0 28.5 -12t12.5 -29v-205q0 -16 -12.5 -28.5t-28.5 -12.5h-193q-20 0 -20 -20v-246q0 -20 20 -20h211 q16 0 28.5 -12.5t12.5 -28.5v-205q0 -16 -12 -28.5t-29 -12.5h-456q-16 0 -28.5 12.5t-12.5 28.5v201q0 12 -8.5 21t-22.5 9h-178q-25 0 -31 -30l-57 -211q-6 -31 -39 -31h-195q-25 0 -35 13.5t-6 27.5zM420 582q-6 -23 16 -23h125q20 0 21 23v544q0 20 -21 21h-4 q-14 0 -19.5 -7t-7.5 -14z" />
<glyph unicode="&#xc7;" d="M68 717q0 76 4 148.5t12 138.5q10 92 48 174t100.5 144t147.5 98t191 36t195.5 -35t154 -97t101.5 -148t37 -189q0 -16 -12.5 -28.5t-28.5 -12.5h-205q-16 0 -27.5 12.5t-13.5 28.5q-6 80 -59.5 130t-141.5 50q-94 0 -142 -48t-56 -115q-8 -66 -12.5 -138.5t-4.5 -148.5 t4.5 -149.5t12.5 -137.5q8 -68 56 -116t142 -48q88 0 141.5 50.5t59.5 129.5q2 16 13.5 28.5t27.5 12.5h205q16 0 28.5 -12t12.5 -29q0 -102 -37 -188t-101.5 -148.5t-153.5 -97.5t-196 -35q-106 0 -191 36t-147.5 98.5t-100.5 144.5t-48 174q-8 63 -12 137t-4 150z M395 -330l60 189q14 49 65 49h111q49 0 58 -27.5t3 -52.5l-43 -188q-12 -49 -65 -50h-127q-49 0 -59.5 29t-2.5 51z" />
<glyph unicode="&#xc8;" d="M145 41v1352q0 16 12.5 28.5t28.5 12.5h744q16 0 28.5 -12.5t12.5 -28.5v-205q0 -16 -12.5 -28.5t-28.5 -12.5h-477q-20 0 -21 -21v-245q0 -20 21 -21h460q16 0 28.5 -12t12.5 -29v-205q0 -16 -12 -28.5t-29 -12.5h-460q-20 0 -21 -20v-246q0 -20 21 -20h485 q16 0 28.5 -12.5t12.5 -28.5v-205q0 -16 -12.5 -28.5t-28.5 -12.5h-752q-16 0 -28.5 12.5t-12.5 28.5zM197 1845q6 19 34 19h220q23 0 34 -11.5t19 -21.5l168 -234q18 -25 6 -43t-33 -18h-141q-29 0 -40 7t-22 18l-235 247q-16 18 -10 37z" />
<glyph unicode="&#xc9;" d="M145 41v1352q0 16 12.5 28.5t28.5 12.5h744q16 0 28.5 -12.5t12.5 -28.5v-205q0 -16 -12.5 -28.5t-28.5 -12.5h-477q-20 0 -21 -21v-245q0 -20 21 -21h460q16 0 28.5 -12t12.5 -29v-205q0 -16 -12 -28.5t-29 -12.5h-460q-20 0 -21 -20v-246q0 -20 21 -20h485 q16 0 28.5 -12.5t12.5 -28.5v-205q0 -16 -12.5 -28.5t-28.5 -12.5h-752q-16 0 -28.5 12.5t-12.5 28.5zM428.5 1554.5q-12.5 18.5 5.5 42.5l168 234q8 10 19.5 21.5t33.5 11.5h219q29 0 35 -18.5t-10 -37.5l-235 -247q-10 -10 -21.5 -17.5t-40.5 -7.5h-141q-20 0 -32.5 18.5z " />
<glyph unicode="&#xca;" d="M145 41v1352q0 16 12.5 28.5t28.5 12.5h744q16 0 28.5 -12.5t12.5 -28.5v-205q0 -16 -12.5 -28.5t-28.5 -12.5h-477q-20 0 -21 -21v-245q0 -20 21 -21h460q16 0 28.5 -12t12.5 -29v-205q0 -16 -12 -28.5t-29 -12.5h-460q-20 0 -21 -20v-246q0 -20 21 -20h485 q16 0 28.5 -12.5t12.5 -28.5v-205q0 -16 -12.5 -28.5t-28.5 -12.5h-752q-16 0 -28.5 12.5t-12.5 28.5zM193 1556.5q-3 20.5 8 30.5l243 252q10 10 21.5 17.5t40.5 7.5h127q27 0 38 -7.5t21 -17.5l244 -252q10 -10 6 -30.5t-33 -20.5h-192q-23 0 -39 11.5t-25 21.5l-71 90 q-14 20 -29 0l-72 -90q-8 -10 -24.5 -21.5t-38.5 -11.5h-195q-27 0 -30 20.5z" />
<glyph unicode="&#xcb;" d="M145 41v1352q0 16 12.5 28.5t28.5 12.5h744q16 0 28.5 -12.5t12.5 -28.5v-205q0 -16 -12.5 -28.5t-28.5 -12.5h-477q-20 0 -21 -21v-245q0 -20 21 -21h460q16 0 28.5 -12t12.5 -29v-205q0 -16 -12 -28.5t-29 -12.5h-460q-20 0 -21 -20v-246q0 -20 21 -20h485 q16 0 28.5 -12.5t12.5 -28.5v-205q0 -16 -12.5 -28.5t-28.5 -12.5h-752q-16 0 -28.5 12.5t-12.5 28.5zM225 1597v185q0 16 12.5 28.5t28.5 12.5h185q16 0 28.5 -12.5t12.5 -28.5v-185q0 -16 -12.5 -28.5t-28.5 -12.5h-185q-16 0 -28.5 12.5t-12.5 28.5zM635 1597v185 q0 16 12 28.5t29 12.5h184q16 0 28.5 -12.5t12.5 -28.5v-185q0 -16 -12 -28.5t-29 -12.5h-184q-16 0 -28.5 12.5t-12.5 28.5z" />
<glyph unicode="&#xcc;" d="M133 41v195q0 16 12.5 28t28.5 12h225q20 0 21 21v840q0 20 -21 20h-204q-16 0 -28.5 12.5t-12.5 28.5v195q0 16 12 28.5t29 12.5h737q16 0 28.5 -12.5t12.5 -28.5v-195q0 -16 -12.5 -28.5t-28.5 -12.5h-205q-20 0 -20 -20v-840q0 -20 20 -21h225q16 0 28.5 -12t12.5 -28 v-195q0 -16 -12 -28.5t-29 -12.5h-778q-16 0 -28.5 12.5t-12.5 28.5zM197 1845q6 19 34 19h220q23 0 34 -11.5t19 -21.5l168 -234q18 -25 6 -43t-33 -18h-141q-29 0 -40 7t-22 18l-235 247q-16 18 -10 37z" />
<glyph unicode="&#xcd;" d="M133 41v195q0 16 12.5 28t28.5 12h225q20 0 21 21v840q0 20 -21 20h-204q-16 0 -28.5 12.5t-12.5 28.5v195q0 16 12 28.5t29 12.5h737q16 0 28.5 -12.5t12.5 -28.5v-195q0 -16 -12.5 -28.5t-28.5 -12.5h-205q-20 0 -20 -20v-840q0 -20 20 -21h225q16 0 28.5 -12t12.5 -28 v-195q0 -16 -12 -28.5t-29 -12.5h-778q-16 0 -28.5 12.5t-12.5 28.5zM428.5 1554.5q-12.5 18.5 5.5 42.5l168 234q8 10 19.5 21.5t33.5 11.5h219q29 0 35 -18.5t-10 -37.5l-235 -247q-10 -10 -21.5 -17.5t-40.5 -7.5h-141q-20 0 -32.5 18.5z" />
<glyph unicode="&#xce;" d="M133 41v195q0 16 12.5 28t28.5 12h225q20 0 21 21v840q0 20 -21 20h-204q-16 0 -28.5 12.5t-12.5 28.5v195q0 16 12 28.5t29 12.5h737q16 0 28.5 -12.5t12.5 -28.5v-195q0 -16 -12.5 -28.5t-28.5 -12.5h-205q-20 0 -20 -20v-840q0 -20 20 -21h225q16 0 28.5 -12t12.5 -28 v-195q0 -16 -12 -28.5t-29 -12.5h-778q-16 0 -28.5 12.5t-12.5 28.5zM193 1556.5q-3 20.5 8 30.5l243 252q10 10 21.5 17.5t40.5 7.5h127q27 0 38 -7.5t21 -17.5l244 -252q10 -10 6 -30.5t-33 -20.5h-192q-23 0 -39 11.5t-25 21.5l-71 90q-14 20 -29 0l-72 -90 q-8 -10 -24.5 -21.5t-38.5 -11.5h-195q-27 0 -30 20.5z" />
<glyph unicode="&#xcf;" d="M133 41v195q0 16 12.5 28t28.5 12h225q20 0 21 21v840q0 20 -21 20h-204q-16 0 -28.5 12.5t-12.5 28.5v195q0 16 12 28.5t29 12.5h737q16 0 28.5 -12.5t12.5 -28.5v-195q0 -16 -12.5 -28.5t-28.5 -12.5h-205q-20 0 -20 -20v-840q0 -20 20 -21h225q16 0 28.5 -12t12.5 -28 v-195q0 -16 -12 -28.5t-29 -12.5h-778q-16 0 -28.5 12.5t-12.5 28.5zM225 1597v185q0 16 12.5 28.5t28.5 12.5h185q16 0 28.5 -12.5t12.5 -28.5v-185q0 -16 -12.5 -28.5t-28.5 -12.5h-185q-16 0 -28.5 12.5t-12.5 28.5zM635 1597v185q0 16 12 28.5t29 12.5h184 q16 0 28.5 -12.5t12.5 -28.5v-185q0 -16 -12 -28.5t-29 -12.5h-184q-16 0 -28.5 12.5t-12.5 28.5z" />
<glyph unicode="&#xd0;" d="M14 614v205q0 16 12.5 28.5t28.5 12.5h15q20 0 20 21v512q0 16 12.5 28.5t28.5 12.5h430q94 0 173 -36t138.5 -98.5t97.5 -144.5t48 -174q16 -129 16 -264t-16 -264q-10 -92 -48 -174t-97.5 -144.5t-138.5 -98.5t-173 -36h-430q-16 0 -28.5 12.5t-12.5 28.5v512 q0 20 -20 20h-15q-16 0 -28.5 12.5t-12.5 28.5zM377 307q0 -20 20 -20h164q72 0 116 49t52 117q16 129 16 264t-16 264q-8 68 -52 117t-116 49h-164q-20 0 -20 -21v-245q0 -20 20 -21h164q16 0 28.5 -12t12.5 -29v-205q0 -16 -12 -28.5t-29 -12.5h-164q-20 0 -20 -20v-246z " />
<glyph unicode="&#xd1;" d="M102 41v1352q0 16 12.5 28.5t28.5 12.5h244q23 0 35 -11.5t16 -25.5l281 -779q4 -10 11 -8t7 13v770q0 16 12.5 28.5t28.5 12.5h205q16 0 28.5 -12.5t12.5 -28.5v-1352q0 -16 -12.5 -28.5t-28.5 -12.5h-242q-27 0 -39 11.5t-16 23.5l-278 719q-4 10 -11.5 8t-7.5 -12 v-709q0 -16 -12 -28.5t-29 -12.5h-205q-16 0 -28.5 12.5t-12.5 28.5zM238 1593v123q0 41 42 73t103 32q49 0 93 -8.5t88 -17.5t89.5 -17.5t98.5 -8.5q39 0 60.5 13.5t33.5 29.5t31.5 8t19.5 -36v-123q0 -41 -42 -73t-103 -32q-49 0 -93.5 8.5t-88.5 17.5t-90 17.5t-97 8.5 q-35 0 -56.5 -11.5t-37.5 -31.5q-12 -14 -31.5 -7t-19.5 35z" />
<glyph unicode="&#xd2;" d="M59 717q0 76 4.5 148.5t12.5 138.5q10 92 48 174t100.5 144t147.5 98t191 36t191.5 -36t148 -98t100 -144t48.5 -174q8 -66 11 -138.5t3 -148.5t-3 -149.5t-11 -137.5q-10 -92 -48 -174t-100.5 -144.5t-147.5 -98.5t-192 -36q-106 0 -191 36t-147.5 98.5t-100.5 144.5 t-48 174q-8 63 -12.5 137t-4.5 150zM197 1845q6 19 34 19h220q23 0 34 -11.5t19 -21.5l168 -234q18 -25 6 -43t-33 -18h-141q-29 0 -40 7t-22 18l-235 247q-16 18 -10 37zM348 717q0 -76 4 -149.5t13 -137.5q8 -68 56 -116t142 -48t142.5 48t56.5 116q8 63 11 137t3 150 t-3 148.5t-11 138.5q-8 68 -56.5 115.5t-142.5 47.5t-142 -48t-56 -115q-8 -66 -12.5 -138.5t-4.5 -148.5z" />
<glyph unicode="&#xd3;" d="M59 717q0 76 4.5 148.5t12.5 138.5q10 92 48 174t100.5 144t147.5 98t191 36t191.5 -36t148 -98t100 -144t48.5 -174q8 -66 11 -138.5t3 -148.5t-3 -149.5t-11 -137.5q-10 -92 -48 -174t-100.5 -144.5t-147.5 -98.5t-192 -36q-106 0 -191 36t-147.5 98.5t-100.5 144.5 t-48 174q-8 63 -12.5 137t-4.5 150zM348 717q0 -76 4 -149.5t13 -137.5q8 -68 56 -116t142 -48t142.5 48t56.5 116q8 63 11 137t3 150t-3 148.5t-11 138.5q-8 68 -56.5 115.5t-142.5 47.5t-142 -48t-56 -115q-8 -66 -12.5 -138.5t-4.5 -148.5zM428.5 1554.5 q-12.5 18.5 5.5 42.5l168 234q8 10 19.5 21.5t33.5 11.5h219q29 0 35 -18.5t-10 -37.5l-235 -247q-10 -10 -21.5 -17.5t-40.5 -7.5h-141q-20 0 -32.5 18.5z" />
<glyph unicode="&#xd4;" d="M59 717q0 76 4.5 148.5t12.5 138.5q10 92 48 174t100.5 144t147.5 98t191 36t191.5 -36t148 -98t100 -144t48.5 -174q8 -66 11 -138.5t3 -148.5t-3 -149.5t-11 -137.5q-10 -92 -48 -174t-100.5 -144.5t-147.5 -98.5t-192 -36q-106 0 -191 36t-147.5 98.5t-100.5 144.5 t-48 174q-8 63 -12.5 137t-4.5 150zM193 1556.5q-3 20.5 8 30.5l243 252q10 10 21.5 17.5t40.5 7.5h127q27 0 38 -7.5t21 -17.5l244 -252q10 -10 6 -30.5t-33 -20.5h-192q-23 0 -39 11.5t-25 21.5l-71 90q-14 20 -29 0l-72 -90q-8 -10 -24.5 -21.5t-38.5 -11.5h-195 q-27 0 -30 20.5zM348 717q0 -76 4 -149.5t13 -137.5q8 -68 56 -116t142 -48t142.5 48t56.5 116q8 63 11 137t3 150t-3 148.5t-11 138.5q-8 68 -56.5 115.5t-142.5 47.5t-142 -48t-56 -115q-8 -66 -12.5 -138.5t-4.5 -148.5z" />
<glyph unicode="&#xd5;" d="M59 717q0 76 4.5 148.5t12.5 138.5q10 92 48 174t100.5 144t147.5 98t191 36t191.5 -36t148 -98t100 -144t48.5 -174q8 -66 11 -138.5t3 -148.5t-3 -149.5t-11 -137.5q-10 -92 -48 -174t-100.5 -144.5t-147.5 -98.5t-192 -36q-106 0 -191 36t-147.5 98.5t-100.5 144.5 t-48 174q-8 63 -12.5 137t-4.5 150zM238 1593v123q0 41 42 73t103 32q49 0 93 -8.5t88 -17.5t89.5 -17.5t98.5 -8.5q39 0 60.5 13.5t33.5 29.5t31.5 8t19.5 -36v-123q0 -41 -42 -73t-103 -32q-49 0 -93.5 8.5t-88.5 17.5t-90 17.5t-97 8.5q-35 0 -56.5 -11.5t-37.5 -31.5 q-12 -14 -31.5 -7t-19.5 35zM348 717q0 -76 4 -149.5t13 -137.5q8 -68 56 -116t142 -48t142.5 48t56.5 116q8 63 11 137t3 150t-3 148.5t-11 138.5q-8 68 -56.5 115.5t-142.5 47.5t-142 -48t-56 -115q-8 -66 -12.5 -138.5t-4.5 -148.5z" />
<glyph unicode="&#xd6;" d="M59 717q0 76 4.5 148.5t12.5 138.5q10 92 48 174t100.5 144t147.5 98t191 36t191.5 -36t148 -98t100 -144t48.5 -174q8 -66 11 -138.5t3 -148.5t-3 -149.5t-11 -137.5q-10 -92 -48 -174t-100.5 -144.5t-147.5 -98.5t-192 -36q-106 0 -191 36t-147.5 98.5t-100.5 144.5 t-48 174q-8 63 -12.5 137t-4.5 150zM225 1597v185q0 16 12.5 28.5t28.5 12.5h185q16 0 28.5 -12.5t12.5 -28.5v-185q0 -16 -12.5 -28.5t-28.5 -12.5h-185q-16 0 -28.5 12.5t-12.5 28.5zM348 717q0 -76 4 -149.5t13 -137.5q8 -68 56 -116t142 -48t142.5 48t56.5 116 q8 63 11 137t3 150t-3 148.5t-11 138.5q-8 68 -56.5 115.5t-142.5 47.5t-142 -48t-56 -115q-8 -66 -12.5 -138.5t-4.5 -148.5zM635 1597v185q0 16 12 28.5t29 12.5h184q16 0 28.5 -12.5t12.5 -28.5v-185q0 -16 -12 -28.5t-29 -12.5h-184q-16 0 -28.5 12.5t-12.5 28.5z" />
<glyph unicode="&#xd7;" d="M168 287.5q0 17.5 12 29.5l180 181q14 14 0 28l-180 181q-12 12 -12 29.5t12 29.5l129 129q10 10 28.5 11t29.5 -11l180 -182q14 -14 28 0l183 182q12 12 29.5 12t29.5 -12l129 -129q10 -10 10 -27.5t-10 -29.5l-182 -183q-18 -14 0 -28l182 -183q10 -12 10 -29.5 t-10 -27.5l-129 -129q-12 -12 -29.5 -12t-29.5 12l-183 182q-14 14 -28 0l-180 -182q-10 -12 -29 -11t-29 11l-129 129q-12 12 -12 29.5z" />
<glyph unicode="&#xd8;" d="M57 57l84 140q10 14 7 20l-5 10q-51 90 -63 203q-8 63 -12.5 137t-4.5 150t4.5 148.5t12.5 138.5q10 92 48 174t100.5 144t147.5 98t191 36q76 0 141.5 -18.5t118.5 -53.5q6 -4 13.5 -7t17.5 12l10 14q10 16 17.5 23.5t21.5 7.5h131q20 0 32.5 -18.5t0.5 -39.5l-82 -135 q-10 -16 -6 -22.5t6 -10.5q27 -47 42.5 -98t23.5 -106q8 -66 11 -138.5t3 -148.5t-3 -149.5t-11 -137.5q-10 -92 -48 -174t-100.5 -144.5t-147.5 -98.5t-192 -36q-160 0 -272 76q-4 2 -9 4t-12 -8l-10 -18q-18 -31 -43 -31h-131q-20 0 -32.5 17.5t-0.5 39.5zM353.5 796 q-3.5 -112 0.5 -218q0 -6 4 -9.5t11 6.5l321 533q8 14 5 19.5t-7 7.5q-49 32 -121 32q-94 0 -142 -48t-56 -115q-12 -96 -15.5 -208zM434 307q2 -4 6 -6q51 -35 127 -35q94 0 142.5 48t56.5 116q10 96 13 208t-1 218q0 8 -4 12t-10 -6l-328 -543q-4 -8 -2 -12z" />
<glyph unicode="&#xd9;" d="M76 430v963q0 16 12 28.5t29 12.5h207q16 0 28.5 -12.5t12.5 -28.5v-963q0 -68 51 -116t143 -48q94 0 146.5 48t52.5 116v963q0 16 12 28.5t29 12.5h207q16 0 28.5 -12.5t12.5 -28.5v-963q0 -92 -37 -175t-101.5 -144.5t-153.5 -97.5t-196 -36q-104 0 -193.5 36 t-154 97.5t-100 144.5t-35.5 175zM197 1845q6 19 34 19h220q23 0 34 -11.5t19 -21.5l168 -234q18 -25 6 -43t-33 -18h-141q-29 0 -40 7t-22 18l-235 247q-16 18 -10 37z" />
<glyph unicode="&#xda;" d="M76 430v963q0 16 12 28.5t29 12.5h207q16 0 28.5 -12.5t12.5 -28.5v-963q0 -68 51 -116t143 -48q94 0 146.5 48t52.5 116v963q0 16 12 28.5t29 12.5h207q16 0 28.5 -12.5t12.5 -28.5v-963q0 -92 -37 -175t-101.5 -144.5t-153.5 -97.5t-196 -36q-104 0 -193.5 36 t-154 97.5t-100 144.5t-35.5 175zM428.5 1554.5q-12.5 18.5 5.5 42.5l168 234q8 10 19.5 21.5t33.5 11.5h219q29 0 35 -18.5t-10 -37.5l-235 -247q-10 -10 -21.5 -17.5t-40.5 -7.5h-141q-20 0 -32.5 18.5z" />
<glyph unicode="&#xdb;" d="M76 430v963q0 16 12 28.5t29 12.5h207q16 0 28.5 -12.5t12.5 -28.5v-963q0 -68 51 -116t143 -48q94 0 146.5 48t52.5 116v963q0 16 12 28.5t29 12.5h207q16 0 28.5 -12.5t12.5 -28.5v-963q0 -92 -37 -175t-101.5 -144.5t-153.5 -97.5t-196 -36q-104 0 -193.5 36 t-154 97.5t-100 144.5t-35.5 175zM193 1556.5q-3 20.5 8 30.5l243 252q10 10 21.5 17.5t40.5 7.5h127q27 0 38 -7.5t21 -17.5l244 -252q10 -10 6 -30.5t-33 -20.5h-192q-23 0 -39 11.5t-25 21.5l-71 90q-14 20 -29 0l-72 -90q-8 -10 -24.5 -21.5t-38.5 -11.5h-195 q-27 0 -30 20.5z" />
<glyph unicode="&#xdc;" d="M76 430v963q0 16 12 28.5t29 12.5h207q16 0 28.5 -12.5t12.5 -28.5v-963q0 -68 51 -116t143 -48q94 0 146.5 48t52.5 116v963q0 16 12 28.5t29 12.5h207q16 0 28.5 -12.5t12.5 -28.5v-963q0 -92 -37 -175t-101.5 -144.5t-153.5 -97.5t-196 -36q-104 0 -193.5 36 t-154 97.5t-100 144.5t-35.5 175zM225 1597v185q0 16 12.5 28.5t28.5 12.5h185q16 0 28.5 -12.5t12.5 -28.5v-185q0 -16 -12.5 -28.5t-28.5 -12.5h-185q-16 0 -28.5 12.5t-12.5 28.5zM635 1597v185q0 16 12 28.5t29 12.5h184q16 0 28.5 -12.5t12.5 -28.5v-185 q0 -16 -12 -28.5t-29 -12.5h-184q-16 0 -28.5 12.5t-12.5 28.5z" />
<glyph unicode="&#xdd;" d="M57 1376q-10 23 1.5 40.5t31.5 17.5h225q29 0 39 -31l197 -567q2 -8 10 -9h4q8 0 10 9l197 567q10 31 39 31h225q20 0 31.5 -17.5t1.5 -40.5l-362 -913v-422q0 -16 -12.5 -28.5t-28.5 -12.5h-205q-16 0 -28.5 12.5t-12.5 28.5v422zM428.5 1554.5q-12.5 18.5 5.5 42.5 l168 234q8 10 19.5 21.5t33.5 11.5h219q29 0 35 -18.5t-10 -37.5l-235 -247q-10 -10 -21.5 -17.5t-40.5 -7.5h-141q-20 0 -32.5 18.5z" />
<glyph unicode="&#xde;" d="M123 41v1352q0 16 12 28.5t29 12.5h205q16 0 28.5 -12.5t12.5 -28.5v-164q0 -20 20 -21h143q88 0 167 -33.5t137.5 -92t92.5 -137.5t34 -167v-102q0 -90 -34 -168t-92.5 -136.5t-137 -92t-167.5 -33.5h-143q-20 0 -20 -21v-184q0 -16 -12.5 -28.5t-28.5 -12.5h-205 q-16 0 -28.5 12.5t-12.5 28.5zM410 553q0 -20 20 -21h143q59 0 101.5 42t42.5 102v102q0 59 -42 101.5t-102 42.5h-143q-20 0 -20 -21v-348z" />
<glyph unicode="&#xdf;" d="M115 41v985q0 90 34.5 168t94 135t139.5 90t170 33t170 -33t139.5 -90t93 -135t33.5 -168q0 -78 -30.5 -143.5t-73.5 -118.5q-10 -12 -10.5 -22.5t12.5 -22.5q53 -55 88 -128t35 -165q0 -98 -36 -177t-98.5 -134.5t-145.5 -85t-177 -29.5h-33q-16 0 -28.5 12.5 t-12.5 28.5v186q0 16 12.5 28.5t28.5 12.5h33q80 0 134 39t54 119q0 88 -54 131t-134 43h-25q-16 0 -28.5 12.5t-12.5 28.5v182q0 16 12.5 28.5t28.5 12.5h25q72 0 121 45t49 117q0 70 -46 114t-124 44t-124 -42t-46 -116v-985q0 -16 -12.5 -28.5t-28.5 -12.5h-186 q-16 0 -28.5 12.5t-12.5 28.5z" />
<glyph unicode="&#xe0;" d="M141 315q0 53 21.5 109.5t65.5 103.5t111 77t155 30h208q20 0 21 20v33q0 63 -45 94t-113 31q-16 0 -39.5 -3t-46 -11t-39 -23.5t-16.5 -40.5q0 -27 -13.5 -33t-41.5 -6h-148q-16 0 -28.5 12.5t-12.5 28.5q0 61 28 116.5t78 98.5t123.5 69t165.5 26q186 0 298 -95.5 t112 -275.5v-635q0 -16 -12 -28.5t-29 -12.5h-102q-16 0 -29 14q-10 12 -15 26.5t-26 14.5q-14 0 -32.5 -12t-47 -26.5t-68.5 -27t-98 -12.5q-180 0 -282.5 88.5t-102.5 249.5zM279 1476.5q6 18.5 34 18.5h219q23 0 34.5 -11t19.5 -22l168 -233q18 -25 6 -43.5t-33 -18.5 h-141q-29 0 -40 7.5t-22 17.5l-235 248q-16 18 -10 36.5zM391 315q0 -57 40 -82.5t95 -25.5q88 0 147.5 30.5t59.5 110.5v49q0 20 -20 21h-217q-33 0 -53.5 -11.5t-32 -28t-15.5 -33.5t-4 -30z" />
<glyph unicode="&#xe1;" d="M141 315q0 53 21.5 109.5t65.5 103.5t111 77t155 30h208q20 0 21 20v33q0 63 -45 94t-113 31q-16 0 -39.5 -3t-46 -11t-39 -23.5t-16.5 -40.5q0 -27 -13.5 -33t-41.5 -6h-148q-16 0 -28.5 12.5t-12.5 28.5q0 61 28 116.5t78 98.5t123.5 69t165.5 26q186 0 298 -95.5 t112 -275.5v-635q0 -16 -12 -28.5t-29 -12.5h-102q-16 0 -29 14q-10 12 -15 26.5t-26 14.5q-14 0 -32.5 -12t-47 -26.5t-68.5 -27t-98 -12.5q-180 0 -282.5 88.5t-102.5 249.5zM391 315q0 -57 40 -82.5t95 -25.5q88 0 147.5 30.5t59.5 110.5v49q0 20 -20 21h-217 q-33 0 -53.5 -11.5t-32 -28t-15.5 -33.5t-4 -30zM428.5 1185.5q-12.5 18.5 5.5 43.5l168 233q8 10 19.5 21.5t33.5 11.5h219q29 0 35 -18.5t-10 -36.5l-235 -248q-10 -10 -21.5 -17.5t-40.5 -7.5h-141q-20 0 -32.5 18.5z" />
<glyph unicode="&#xe2;" d="M141 315q0 53 21.5 109.5t65.5 103.5t111 77t155 30h208q20 0 21 20v33q0 63 -45 94t-113 31q-16 0 -39.5 -3t-46 -11t-39 -23.5t-16.5 -40.5q0 -27 -13.5 -33t-41.5 -6h-148q-16 0 -28.5 12.5t-12.5 28.5q0 61 28 116.5t78 98.5t123.5 69t165.5 26q186 0 298 -95.5 t112 -275.5v-635q0 -16 -12 -28.5t-29 -12.5h-102q-16 0 -29 14q-10 12 -15 26.5t-26 14.5q-14 0 -32.5 -12t-47 -26.5t-68.5 -27t-98 -12.5q-180 0 -282.5 88.5t-102.5 249.5zM208 1187.5q-3 20.5 7 31.5l244 251q10 10 21.5 17.5t39.5 7.5h127q27 0 38 -7t22 -18l243 -251 q10 -10 6 -31t-32 -21h-193q-23 0 -39 11.5t-24 21.5l-72 90q-14 20 -29 0l-71 -90q-8 -10 -24.5 -21.5t-39.5 -11.5h-194q-27 0 -30 20.5zM391 315q0 -57 40 -82.5t95 -25.5q88 0 147.5 30.5t59.5 110.5v49q0 20 -20 21h-217q-33 0 -53.5 -11.5t-32 -28t-15.5 -33.5t-4 -30 z" />
<glyph unicode="&#xe3;" d="M141 315q0 53 21.5 109.5t65.5 103.5t111 77t155 30h208q20 0 21 20v33q0 63 -45 94t-113 31q-16 0 -39.5 -3t-46 -11t-39 -23.5t-16.5 -40.5q0 -27 -13.5 -33t-41.5 -6h-148q-16 0 -28.5 12.5t-12.5 28.5q0 61 28 116.5t78 98.5t123.5 69t165.5 26q186 0 298 -95.5 t112 -275.5v-635q0 -16 -12 -28.5t-29 -12.5h-102q-16 0 -29 14q-10 12 -15 26.5t-26 14.5q-14 0 -32.5 -12t-47 -26.5t-68.5 -27t-98 -12.5q-180 0 -282.5 88.5t-102.5 249.5zM254 1225v123q0 41 42 72.5t103 31.5q49 0 93.5 -8t88.5 -17.5t89 -17.5t98 -8q39 0 60.5 13 t33.5 30q12 16 31.5 8t19.5 -37v-123q0 -41 -42 -72.5t-103 -31.5q-49 0 -93 8t-88 17.5t-90 17.5t-98 8q-35 0 -56 -11t-38 -32q-12 -14 -31.5 -7t-19.5 36zM391 315q0 -57 40 -82.5t95 -25.5q88 0 147.5 30.5t59.5 110.5v49q0 20 -20 21h-217q-33 0 -53.5 -11.5t-32 -28 t-15.5 -33.5t-4 -30z" />
<glyph unicode="&#xe4;" d="M141 315q0 53 21.5 109.5t65.5 103.5t111 77t155 30h208q20 0 21 20v33q0 63 -45 94t-113 31q-16 0 -39.5 -3t-46 -11t-39 -23.5t-16.5 -40.5q0 -27 -13.5 -33t-41.5 -6h-148q-16 0 -28.5 12.5t-12.5 28.5q0 61 28 116.5t78 98.5t123.5 69t165.5 26q186 0 298 -95.5 t112 -275.5v-635q0 -16 -12 -28.5t-29 -12.5h-102q-16 0 -29 14q-10 12 -15 26.5t-26 14.5q-14 0 -32.5 -12t-47 -26.5t-68.5 -27t-98 -12.5q-180 0 -282.5 88.5t-102.5 249.5zM246 1229v184q0 16 12 28.5t29 12.5h184q16 0 28.5 -12t12.5 -29v-184q0 -16 -12.5 -28.5 t-28.5 -12.5h-184q-16 0 -28.5 12t-12.5 29zM391 315q0 -57 40 -82.5t95 -25.5q88 0 147.5 30.5t59.5 110.5v49q0 20 -20 21h-217q-33 0 -53.5 -11.5t-32 -28t-15.5 -33.5t-4 -30zM655 1229v184q0 16 12.5 28.5t28.5 12.5h185q16 0 28.5 -12t12.5 -29v-184 q0 -16 -12.5 -28.5t-28.5 -12.5h-185q-16 0 -28.5 12t-12.5 29z" />
<glyph unicode="&#xe5;" d="M141 315q0 53 21.5 109.5t65.5 103.5t111 77t155 30h208q20 0 21 20v33q0 63 -45 94t-113 31q-16 0 -39.5 -3t-46 -11t-39 -23.5t-16.5 -40.5q0 -27 -13.5 -33t-41.5 -6h-148q-16 0 -28.5 12.5t-12.5 28.5q0 61 28 116.5t78 98.5t123.5 69t165.5 26q186 0 298 -95.5 t112 -275.5v-635q0 -16 -12 -28.5t-29 -12.5h-102q-16 0 -29 14q-10 12 -15 26.5t-26 14.5q-14 0 -32.5 -12t-47 -26.5t-68.5 -27t-98 -12.5q-180 0 -282.5 88.5t-102.5 249.5zM346 1372q0 49 18.5 92t51.5 75t76 50.5t92 18.5t92 -18.5t74.5 -50.5t50 -75t18.5 -92 t-18.5 -92t-50 -76t-74.5 -51t-92 -18t-92 18t-76 51t-51.5 76t-18.5 92zM391 315q0 -57 40 -82.5t95 -25.5q88 0 147.5 30.5t59.5 110.5v49q0 20 -20 21h-217q-33 0 -53.5 -11.5t-32 -28t-15.5 -33.5t-4 -30zM518 1372q0 -29 18.5 -47t47.5 -18t47 18t18 47t-18.5 47.5 t-46.5 18.5q-29 0 -47.5 -18.5t-18.5 -47.5z" />
<glyph unicode="&#xe6;" d="M6 315q0 53 21.5 109.5t62.5 103.5t101.5 77t140.5 30h74q20 0 20 20v33q-2 63 -29.5 94t-68.5 31q-27 0 -48.5 -18.5t-29.5 -59.5q-6 -27 -16.5 -33t-38.5 -6h-127q-16 0 -28.5 12.5t-12.5 28.5q0 55 19.5 110.5t57 99.5t95 72t133.5 28q66 0 110.5 -19.5t92.5 -58.5 q12 -10 28.5 -12.5t32.5 12.5q39 33 88 55.5t109 22.5q166 0 246.5 -137.5t80.5 -377.5v-61q-2 -16 -13 -28.5t-28 -12.5h-374q-31 0 -31 -31q0 -86 32.5 -134t92.5 -48q86 0 106 94q4 20 18.5 27.5t28.5 7.5h129q35 0 35 -41q0 -53 -20.5 -110.5t-59.5 -105.5t-95 -80 t-128 -32q-76 0 -131 24.5t-80 47.5q-41 35 -78 0q-41 -35 -95 -53.5t-114 -18.5q-66 0 -123 25t-98 69t-64.5 106.5t-23.5 137.5zM236 315q0 -57 27.5 -81.5t68.5 -24.5q53 0 78.5 41t25.5 119v28q0 20 -20 21h-94q-23 0 -39.5 -11.5t-26.5 -26.5t-15 -32.5t-5 -32.5z M664 653q0 -18 20 -18h207q20 0 20 18q0 74 -32.5 113t-85.5 39q-66 0 -97.5 -46.5t-31.5 -105.5z" />
<glyph unicode="&#xe7;" d="M137 512q0 43 2 83t6 71q10 80 42 149.5t86.5 120.5t129 81t168.5 30q84 0 160 -27t133.5 -79t91 -127t33.5 -169q0 -16 -9 -28.5t-26 -12.5h-182q-14 0 -25.5 8.5t-13.5 24.5q-4 76 -48 109.5t-116 33.5q-78 0 -113.5 -27.5t-43.5 -86.5q-4 -31 -6.5 -71t-2.5 -83 t2.5 -83t6.5 -71q6 -53 43.5 -83.5t115.5 -30.5q68 0 109 29.5t53 113.5q6 33 39 33h182q16 0 25.5 -12.5t9.5 -28.5q0 -94 -33.5 -168t-91 -126t-133.5 -80t-160 -28q-94 0 -168.5 30t-129 81t-86 121t-42.5 149q-4 31 -6 71t-2 83zM416 -330l59 189q14 49 66 49h110 q49 0 58.5 -27.5t3.5 -52.5l-43 -188q-12 -49 -66 -50h-127q-49 0 -59 29t-2 51z" />
<glyph unicode="&#xe8;" d="M137 512q0 43 2 83t6 71q10 80 42 149.5t86.5 120.5t128 81t167.5 30q92 0 169 -27t132.5 -79t86 -127t30.5 -173v-170q0 -16 -12 -28.5t-29 -12.5h-526q-31 0 -31 -31q0 -86 53.5 -130t126.5 -44q59 0 100.5 18.5t61.5 67.5q14 35 47 35h170q16 0 28.5 -10t6.5 -35 q-35 -143 -138.5 -233.5t-275.5 -90.5q-94 0 -167.5 30t-128 81t-86 121t-42.5 149q-4 31 -6 71t-2 83zM258 1476.5q6 18.5 35 18.5h219q23 0 34 -11t19 -22l168 -233q18 -25 6 -43.5t-32 -18.5h-142q-29 0 -40 7.5t-21 17.5l-236 248q-16 18 -10 36.5zM391 676 q0 -18 21 -19h311q20 0 20 19q0 33 -14 57.5t-38.5 39.5t-56.5 23.5t-65 8.5q-88 0 -133 -35t-45 -94z" />
<glyph unicode="&#xe9;" d="M137 512q0 43 2 83t6 71q10 80 42 149.5t86.5 120.5t128 81t167.5 30q92 0 169 -27t132.5 -79t86 -127t30.5 -173v-170q0 -16 -12 -28.5t-29 -12.5h-526q-31 0 -31 -31q0 -86 53.5 -130t126.5 -44q59 0 100.5 18.5t61.5 67.5q14 35 47 35h170q16 0 28.5 -10t6.5 -35 q-35 -143 -138.5 -233.5t-275.5 -90.5q-94 0 -167.5 30t-128 81t-86 121t-42.5 149q-4 31 -6 71t-2 83zM391 676q0 -18 21 -19h311q20 0 20 19q0 33 -14 57.5t-38.5 39.5t-56.5 23.5t-65 8.5q-88 0 -133 -35t-45 -94zM407.5 1185.5q-12.5 18.5 6.5 43.5l168 233 q8 10 19 21.5t34 11.5h219q29 0 35 -18.5t-10 -36.5l-236 -248q-10 -10 -21.5 -17.5t-39.5 -7.5h-142q-20 0 -32.5 18.5z" />
<glyph unicode="&#xea;" d="M137 512q0 43 2 83t6 71q10 80 42 149.5t86.5 120.5t128 81t167.5 30q92 0 169 -27t132.5 -79t86 -127t30.5 -173v-170q0 -16 -12 -28.5t-29 -12.5h-526q-31 0 -31 -31q0 -86 53.5 -130t126.5 -44q59 0 100.5 18.5t61.5 67.5q14 35 47 35h170q16 0 28.5 -10t6.5 -35 q-35 -143 -138.5 -233.5t-275.5 -90.5q-94 0 -167.5 30t-128 81t-86 121t-42.5 149q-4 31 -6 71t-2 83zM208 1187.5q-3 20.5 7 31.5l244 251q10 10 21.5 17.5t39.5 7.5h127q27 0 38 -7t22 -18l243 -251q10 -10 6 -31t-32 -21h-193q-23 0 -39 11.5t-24 21.5l-72 90 q-14 20 -29 0l-71 -90q-8 -10 -24.5 -21.5t-39.5 -11.5h-194q-27 0 -30 20.5zM391 676q0 -18 21 -19h311q20 0 20 19q0 33 -14 57.5t-38.5 39.5t-56.5 23.5t-65 8.5q-88 0 -133 -35t-45 -94z" />
<glyph unicode="&#xeb;" d="M137 512q0 43 2 83t6 71q10 80 42 149.5t86.5 120.5t128 81t167.5 30q92 0 169 -27t132.5 -79t86 -127t30.5 -173v-170q0 -16 -12 -28.5t-29 -12.5h-526q-31 0 -31 -31q0 -86 53.5 -130t126.5 -44q59 0 100.5 18.5t61.5 67.5q14 35 47 35h170q16 0 28.5 -10t6.5 -35 q-35 -143 -138.5 -233.5t-275.5 -90.5q-94 0 -167.5 30t-128 81t-86 121t-42.5 149q-4 31 -6 71t-2 83zM246 1229v184q0 16 12 28.5t29 12.5h184q16 0 28.5 -12t12.5 -29v-184q0 -16 -12.5 -28.5t-28.5 -12.5h-184q-16 0 -28.5 12t-12.5 29zM391 676q0 -18 21 -19h311 q20 0 20 19q0 33 -14 57.5t-38.5 39.5t-56.5 23.5t-65 8.5q-88 0 -133 -35t-45 -94zM655 1229v184q0 16 12.5 28.5t28.5 12.5h185q16 0 28.5 -12t12.5 -29v-184q0 -16 -12.5 -28.5t-28.5 -12.5h-185q-16 0 -28.5 12t-12.5 29z" />
<glyph unicode="&#xec;" d="M184 41v184q0 16 12.5 28.5t28.5 12.5h226q20 0 20 21v456q0 20 -20 21h-205q-16 0 -28.5 12t-12.5 29v178q0 16 12 28.5t29 12.5h459q14 0 23 -10t9 -23v-704q0 -20 21 -21h225q16 0 28.5 -12t12.5 -29v-184q0 -16 -12.5 -28.5t-28.5 -12.5h-758q-16 0 -28.5 12.5 t-12.5 28.5zM279 1476.5q6 18.5 34 18.5h219q23 0 34.5 -11t19.5 -22l168 -233q18 -25 6 -43.5t-33 -18.5h-141q-29 0 -40 7.5t-22 17.5l-235 248q-16 18 -10 36.5z" />
<glyph unicode="&#xed;" d="M184 41v184q0 16 12.5 28.5t28.5 12.5h226q20 0 20 21v456q0 20 -20 21h-205q-16 0 -28.5 12t-12.5 29v178q0 16 12 28.5t29 12.5h459q14 0 23 -10t9 -23v-704q0 -20 21 -21h225q16 0 28.5 -12t12.5 -29v-184q0 -16 -12.5 -28.5t-28.5 -12.5h-758q-16 0 -28.5 12.5 t-12.5 28.5zM428.5 1185.5q-12.5 18.5 5.5 43.5l168 233q8 10 19.5 21.5t33.5 11.5h219q29 0 35 -18.5t-10 -36.5l-235 -248q-10 -10 -21.5 -17.5t-40.5 -7.5h-141q-20 0 -32.5 18.5z" />
<glyph unicode="&#xee;" d="M184 41v184q0 16 12.5 28.5t28.5 12.5h226q20 0 20 21v456q0 20 -20 21h-205q-16 0 -28.5 12t-12.5 29v178q0 16 12 28.5t29 12.5h459q14 0 23 -10t9 -23v-704q0 -20 21 -21h225q16 0 28.5 -12t12.5 -29v-184q0 -16 -12.5 -28.5t-28.5 -12.5h-758q-16 0 -28.5 12.5 t-12.5 28.5zM187 1187.5q-3 20.5 8 31.5l243 251q10 10 21.5 17.5t40.5 7.5h127q27 0 38 -7t21 -18l244 -251q10 -10 6 -31t-33 -21h-192q-23 0 -39.5 11.5t-24.5 21.5l-72 90q-14 20 -28 0l-72 -90q-8 -10 -24.5 -21.5t-38.5 -11.5h-195q-27 0 -30 20.5z" />
<glyph unicode="&#xef;" d="M184 41v184q0 16 12.5 28.5t28.5 12.5h226q20 0 20 21v456q0 20 -20 21h-205q-16 0 -28.5 12t-12.5 29v178q0 16 12 28.5t29 12.5h459q14 0 23 -10t9 -23v-704q0 -20 21 -21h225q16 0 28.5 -12t12.5 -29v-184q0 -16 -12.5 -28.5t-28.5 -12.5h-758q-16 0 -28.5 12.5 t-12.5 28.5zM225 1229v184q0 16 12.5 28.5t28.5 12.5h185q16 0 28.5 -12t12.5 -29v-184q0 -16 -12.5 -28.5t-28.5 -12.5h-185q-16 0 -28.5 12t-12.5 29zM635 1229v184q0 16 12 28.5t29 12.5h184q16 0 28.5 -12t12.5 -29v-184q0 -16 -12 -28.5t-29 -12.5h-184q-16 0 -28.5 12 t-12.5 29z" />
<glyph unicode="&#xf0;" d="M106 426q0 106 29 200.5t86.5 165t142.5 110.5t199 40q18 0 46 -5t48 -15q16 -10 32 -3t16 29q0 18 -5.5 43t-12.5 44.5t-17.5 31.5t-18.5 6l-137 -94q-16 -10 -36.5 -2t-20.5 31v82q0 16 4 28t26 29q14 10 9.5 15t-13.5 5h-43h-86q-16 0 -28.5 12.5t-12.5 28.5v185 q0 16 12.5 28.5t28.5 12.5h135q150 0 256 -76q10 -4 19 2l147 84q16 10 34 1t18 -30v-125q0 -20 -6.5 -29.5t-20.5 -19.5l-31 -20q-16 -12 -10 -21q37 -57 63.5 -146t42 -194.5t18.5 -218.5t-9 -219q-10 -92 -41 -173t-84.5 -141.5t-133 -95.5t-188.5 -35t-192.5 35 t-143 95.5t-90.5 142.5t-31 176zM381 502q-8 -113 35 -184.5t147 -71.5q80 0 128 48t54 128q4 53 -4 101t-30.5 84t-59.5 57.5t-88 21.5q-80 0 -128 -52t-54 -132z" />
<glyph unicode="&#xf1;" d="M143 41v942q0 16 12.5 28.5t28.5 12.5h103q18 0 28.5 -7t18.5 -18q10 -10 19.5 -17t25.5 -7q23 0 43 11t46 24.5t57.5 25t78.5 11.5q80 0 149.5 -30t121 -81t80 -121t28.5 -149v-625q0 -16 -12.5 -28.5t-28.5 -12.5h-184q-16 0 -28.5 12.5t-12.5 28.5v627q0 51 -40 85.5 t-114 34.5q-72 0 -112.5 -32.5t-40.5 -79.5v-635q0 -16 -12.5 -28.5t-28.5 -12.5h-185q-16 0 -28.5 12.5t-12.5 28.5zM233 1225v123q0 41 42 72.5t104 31.5q49 0 93 -8t88 -17.5t89.5 -17.5t98.5 -8q39 0 60 13t34 30q12 16 31.5 8t19.5 -37v-123q0 -41 -42 -72.5 t-103 -31.5q-49 0 -93.5 8t-88.5 17.5t-90 17.5t-97 8q-35 0 -56.5 -11t-37.5 -32q-12 -14 -32 -7t-20 36z" />
<glyph unicode="&#xf2;" d="M129 512q0 43 2 83t6 71q10 80 42 149.5t86 120.5t128 81t168 30t169 -30t128 -81t86 -121t43 -149q4 -31 6 -71t2 -83t-2 -83t-6 -71q-10 -80 -42 -149.5t-86 -120.5t-128 -81t-168 -30t-169 30t-129 81t-86 121t-42 149q-4 31 -6 71t-2 83zM238 1476.5q6 18.5 34 18.5 h220q23 0 34 -11t19 -22l168 -233q18 -25 6 -43.5t-33 -18.5h-141q-29 0 -40 7.5t-22 17.5l-235 248q-16 18 -10 36.5zM393 512q0 -43 3 -83t7 -71q8 -53 44 -83.5t114 -30.5t115 31.5t45 82.5q4 31 6 71t2 83t-2 83t-6 71q-8 51 -45 82.5t-115 31.5t-112.5 -27.5 t-45.5 -86.5q-4 -31 -7 -71t-3 -83z" />
<glyph unicode="&#xf3;" d="M129 512q0 43 2 83t6 71q10 80 42 149.5t86 120.5t128 81t168 30t169 -30t128 -81t86 -121t43 -149q4 -31 6 -71t2 -83t-2 -83t-6 -71q-10 -80 -42 -149.5t-86 -120.5t-128 -81t-168 -30t-169 30t-129 81t-86 121t-42 149q-4 31 -6 71t-2 83zM393 512q0 -43 3 -83t7 -71 q8 -53 44 -83.5t114 -30.5t115 31.5t45 82.5q4 31 6 71t2 83t-2 83t-6 71q-8 51 -45 82.5t-115 31.5t-112.5 -27.5t-45.5 -86.5q-4 -31 -7 -71t-3 -83zM407.5 1185.5q-12.5 18.5 6.5 43.5l168 233q8 10 19 21.5t34 11.5h219q29 0 35 -18.5t-10 -36.5l-236 -248 q-10 -10 -21.5 -17.5t-39.5 -7.5h-142q-20 0 -32.5 18.5z" />
<glyph unicode="&#xf4;" d="M129 512q0 43 2 83t6 71q10 80 42 149.5t86 120.5t128 81t168 30t169 -30t128 -81t86 -121t43 -149q4 -31 6 -71t2 -83t-2 -83t-6 -71q-10 -80 -42 -149.5t-86 -120.5t-128 -81t-168 -30t-169 30t-129 81t-86 121t-42 149q-4 31 -6 71t-2 83zM187 1187.5q-3 20.5 8 31.5 l243 251q10 10 21.5 17.5t40.5 7.5h127q27 0 38 -7t21 -18l244 -251q10 -10 6 -31t-33 -21h-192q-23 0 -39.5 11.5t-24.5 21.5l-72 90q-14 20 -28 0l-72 -90q-8 -10 -24.5 -21.5t-38.5 -11.5h-195q-27 0 -30 20.5zM393 512q0 -43 3 -83t7 -71q8 -53 44 -83.5t114 -30.5 t115 31.5t45 82.5q4 31 6 71t2 83t-2 83t-6 71q-8 51 -45 82.5t-115 31.5t-112.5 -27.5t-45.5 -86.5q-4 -31 -7 -71t-3 -83z" />
<glyph unicode="&#xf5;" d="M129 512q0 43 2 83t6 71q10 80 42 149.5t86 120.5t128 81t168 30t169 -30t128 -81t86 -121t43 -149q4 -31 6 -71t2 -83t-2 -83t-6 -71q-10 -80 -42 -149.5t-86 -120.5t-128 -81t-168 -30t-169 30t-129 81t-86 121t-42 149q-4 31 -6 71t-2 83zM233 1225v123q0 41 42 72.5 t104 31.5q49 0 93 -8t88 -17.5t89.5 -17.5t98.5 -8q39 0 60 13t34 30q12 16 31.5 8t19.5 -37v-123q0 -41 -42 -72.5t-103 -31.5q-49 0 -93.5 8t-88.5 17.5t-90 17.5t-97 8q-35 0 -56.5 -11t-37.5 -32q-12 -14 -32 -7t-20 36zM393 512q0 -43 3 -83t7 -71q8 -53 44 -83.5 t114 -30.5t115 31.5t45 82.5q4 31 6 71t2 83t-2 83t-6 71q-8 51 -45 82.5t-115 31.5t-112.5 -27.5t-45.5 -86.5q-4 -31 -7 -71t-3 -83z" />
<glyph unicode="&#xf6;" d="M129 512q0 43 2 83t6 71q10 80 42 149.5t86 120.5t128 81t168 30t169 -30t128 -81t86 -121t43 -149q4 -31 6 -71t2 -83t-2 -83t-6 -71q-10 -80 -42 -149.5t-86 -120.5t-128 -81t-168 -30t-169 30t-129 81t-86 121t-42 149q-4 31 -6 71t-2 83zM225 1229v184 q0 16 12.5 28.5t28.5 12.5h185q16 0 28.5 -12t12.5 -29v-184q0 -16 -12.5 -28.5t-28.5 -12.5h-185q-16 0 -28.5 12t-12.5 29zM393 512q0 -43 3 -83t7 -71q8 -53 44 -83.5t114 -30.5t115 31.5t45 82.5q4 31 6 71t2 83t-2 83t-6 71q-8 51 -45 82.5t-115 31.5t-112.5 -27.5 t-45.5 -86.5q-4 -31 -7 -71t-3 -83zM635 1229v184q0 16 12 28.5t29 12.5h184q16 0 28.5 -12t12.5 -29v-184q0 -16 -12 -28.5t-29 -12.5h-184q-16 0 -28.5 12t-12.5 29z" />
<glyph unicode="&#xf7;" d="M102 434v162q0 16 12.5 28.5t28.5 12.5h840q16 0 28.5 -12.5t12.5 -28.5v-162q0 -16 -12.5 -28.5t-28.5 -12.5h-840q-16 0 -28.5 12.5t-12.5 28.5zM416 41v211q0 16 12 28.5t29 12.5h211q16 0 28.5 -12.5t12.5 -28.5v-211q0 -16 -12.5 -28.5t-28.5 -12.5h-211 q-16 0 -28.5 12.5t-12.5 28.5zM416 772v211q0 16 12 28.5t29 12.5h211q16 0 28.5 -12.5t12.5 -28.5v-211q0 -16 -12.5 -28.5t-28.5 -12.5h-211q-16 0 -28.5 12.5t-12.5 28.5z" />
<glyph unicode="&#xf8;" d="M70.5 19.5q-9.5 19.5 7.5 37.5l98 121q10 12 8 18.5t-4 10.5q-16 35 -27.5 72.5t-15.5 78.5q-4 31 -6 71t-2 83t2 83t6 71q10 80 42 149.5t86 120.5t128 81t168 30q72 0 131.5 -17.5t106.5 -46.5l8 -4t12 6l8 8q27 31 50 31h131q20 0 31.5 -19.5t-5.5 -37.5l-94 -121 q-6 -8 -5 -11.5t3 -7.5q37 -74 49 -161q4 -31 6 -71t2 -83t-2 -83t-6 -71q-10 -80 -42 -149.5t-86 -120.5t-128 -81t-168 -30q-74 0 -133 16.5t-108 49.5q-4 4 -10.5 6t-14.5 -8l-12 -14q-20 -27 -49 -27h-136q-20 0 -29.5 19.5zM393 477q0 -6 4 -11t15 7l223 281q8 10 3 13 t-9 5q-14 4 -31.5 6t-36.5 2q-78 0 -113 -27.5t-45 -86.5q-6 -37 -9 -87.5t-1 -101.5zM478 261q5 -5 9 -7q35 -10 74 -10q78 0 115 31.5t45 82.5q6 39 8 93.5t0 107.5q0 6 -3 10t-11 -6l-232 -287q-10 -10 -5 -15z" />
<glyph unicode="&#xf9;" d="M143 358v625q0 16 12.5 28.5t28.5 12.5h185q16 0 28.5 -12.5t12.5 -28.5v-627q0 -51 39.5 -85.5t113.5 -34.5q72 0 113 32.5t41 79.5v635q0 16 12 28.5t29 12.5h184q16 0 28.5 -12.5t12.5 -28.5v-942q0 -16 -12.5 -28.5t-28.5 -12.5h-102q-18 0 -28.5 6t-18.5 14 q-10 8 -19.5 14.5t-25.5 6.5q-23 0 -42.5 -10.5t-42 -21.5t-54 -21.5t-77.5 -10.5q-80 0 -151.5 30t-123.5 81t-83 121t-31 149zM238 1476.5q6 18.5 34 18.5h220q23 0 34 -11t19 -22l168 -233q18 -25 6 -43.5t-33 -18.5h-141q-29 0 -40 7.5t-22 17.5l-235 248 q-16 18 -10 36.5z" />
<glyph unicode="&#xfa;" d="M143 358v625q0 16 12.5 28.5t28.5 12.5h185q16 0 28.5 -12.5t12.5 -28.5v-627q0 -51 39.5 -85.5t113.5 -34.5q72 0 113 32.5t41 79.5v635q0 16 12 28.5t29 12.5h184q16 0 28.5 -12.5t12.5 -28.5v-942q0 -16 -12.5 -28.5t-28.5 -12.5h-102q-18 0 -28.5 6t-18.5 14 q-10 8 -19.5 14.5t-25.5 6.5q-23 0 -42.5 -10.5t-42 -21.5t-54 -21.5t-77.5 -10.5q-80 0 -151.5 30t-123.5 81t-83 121t-31 149zM407.5 1185.5q-12.5 18.5 6.5 43.5l168 233q8 10 19 21.5t34 11.5h219q29 0 35 -18.5t-10 -36.5l-236 -248q-10 -10 -21.5 -17.5t-39.5 -7.5 h-142q-20 0 -32.5 18.5z" />
<glyph unicode="&#xfb;" d="M143 358v625q0 16 12.5 28.5t28.5 12.5h185q16 0 28.5 -12.5t12.5 -28.5v-627q0 -51 39.5 -85.5t113.5 -34.5q72 0 113 32.5t41 79.5v635q0 16 12 28.5t29 12.5h184q16 0 28.5 -12.5t12.5 -28.5v-942q0 -16 -12.5 -28.5t-28.5 -12.5h-102q-18 0 -28.5 6t-18.5 14 q-10 8 -19.5 14.5t-25.5 6.5q-23 0 -42.5 -10.5t-42 -21.5t-54 -21.5t-77.5 -10.5q-80 0 -151.5 30t-123.5 81t-83 121t-31 149zM187 1187.5q-3 20.5 8 31.5l243 251q10 10 21.5 17.5t40.5 7.5h127q27 0 38 -7t21 -18l244 -251q10 -10 6 -31t-33 -21h-192q-23 0 -39.5 11.5 t-24.5 21.5l-72 90q-14 20 -28 0l-72 -90q-8 -10 -24.5 -21.5t-38.5 -11.5h-195q-27 0 -30 20.5z" />
<glyph unicode="&#xfc;" d="M143 358v625q0 16 12.5 28.5t28.5 12.5h185q16 0 28.5 -12.5t12.5 -28.5v-627q0 -51 39.5 -85.5t113.5 -34.5q72 0 113 32.5t41 79.5v635q0 16 12 28.5t29 12.5h184q16 0 28.5 -12.5t12.5 -28.5v-942q0 -16 -12.5 -28.5t-28.5 -12.5h-102q-18 0 -28.5 6t-18.5 14 q-10 8 -19.5 14.5t-25.5 6.5q-23 0 -42.5 -10.5t-42 -21.5t-54 -21.5t-77.5 -10.5q-80 0 -151.5 30t-123.5 81t-83 121t-31 149zM225 1229v184q0 16 12.5 28.5t28.5 12.5h185q16 0 28.5 -12t12.5 -29v-184q0 -16 -12.5 -28.5t-28.5 -12.5h-185q-16 0 -28.5 12t-12.5 29z M635 1229v184q0 16 12 28.5t29 12.5h184q16 0 28.5 -12t12.5 -29v-184q0 -16 -12 -28.5t-29 -12.5h-184q-16 0 -28.5 12t-12.5 29z" />
<glyph unicode="&#xfd;" d="M90 977q-6 16 4 31.5t35 15.5h211q29 0 39 -31l180 -581q4 -12 12.5 -12.5t12.5 12.5l166 581q8 31 38 31h207q25 0 35 -15.5t4 -31.5l-481 -1356q-10 -31 -39 -31h-188q-25 0 -35 15.5t-4 32.5l143 382q4 14 5 21.5t-5 24.5zM407.5 1185.5q-12.5 18.5 6.5 43.5l168 233 q8 10 19 21.5t34 11.5h219q29 0 35 -18.5t-10 -36.5l-236 -248q-10 -10 -21.5 -17.5t-39.5 -7.5h-142q-20 0 -32.5 18.5z" />
<glyph unicode="&#xfe;" d="M141 -369v1782q0 16 12.5 28.5t28.5 12.5h185q16 0 28.5 -12t12.5 -29v-340q0 -35 19 -44t42 1t49.5 17.5t73.5 7.5q80 0 148.5 -31t119.5 -83t83 -124t38 -151q2 -31 3 -71t1 -83t-1 -83t-3 -71q-6 -80 -38 -151.5t-83 -123.5t-119.5 -83t-148.5 -31q-47 0 -73.5 7.5 t-49.5 17.5t-42 1t-19 -44v-320q0 -16 -12.5 -28.5t-28.5 -12.5h-185q-16 0 -28.5 12.5t-12.5 28.5zM401 512q0 -43 1 -83t4 -71q4 -59 41.5 -90.5t113.5 -31.5q74 0 112 35.5t42 86.5q2 31 3 71t1 83t-1 83t-3 71q-4 51 -42 86.5t-112 35.5q-76 0 -113.5 -34.5t-41.5 -87.5 q-2 -31 -3.5 -71t-1.5 -83z" />
<glyph unicode="&#xff;" d="M90 977q-6 16 4 31.5t35 15.5h211q29 0 39 -31l180 -581q4 -12 12.5 -12.5t12.5 12.5l166 581q8 31 38 31h207q25 0 35 -15.5t4 -31.5l-481 -1356q-10 -31 -39 -31h-188q-25 0 -35 15.5t-4 32.5l143 382q4 14 5 21.5t-5 24.5zM225 1229v184q0 16 12.5 28.5t28.5 12.5h185 q16 0 28.5 -12t12.5 -29v-184q0 -16 -12.5 -28.5t-28.5 -12.5h-185q-16 0 -28.5 12t-12.5 29zM635 1229v184q0 16 12 28.5t29 12.5h184q16 0 28.5 -12t12.5 -29v-184q0 -16 -12 -28.5t-29 -12.5h-184q-16 0 -28.5 12t-12.5 29z" />
<glyph unicode="&#x152;" d="M31 717q0 135 16 264q10 92 48 174t97.5 144.5t138.5 98.5t173 36h553q16 0 28.5 -12.5t12.5 -28.5v-205q0 -16 -12.5 -28.5t-28.5 -12.5h-228q-20 0 -20 -21v-245q0 -20 20 -21h211q16 0 28.5 -12t12.5 -29v-205q0 -16 -12 -28.5t-29 -12.5h-211q-20 0 -20 -20v-246 q0 -20 20 -20h236q16 0 28.5 -12.5t12.5 -28.5v-205q0 -16 -12.5 -28.5t-28.5 -12.5h-561q-94 0 -173 36t-138.5 98.5t-97.5 144t-48 174.5q-16 129 -16 264zM319.5 717q-0.5 -135 16.5 -264q8 -68 52 -117t116 -49q20 0 20 20v819q0 20 -20 21q-72 0 -116 -49t-52 -117 q-16 -129 -16.5 -264z" />
<glyph unicode="&#x153;" d="M4 522q0 100 22.5 194.5t67.5 168t109.5 118t150.5 44.5q78 0 121 -23t78 -57q10 -10 30.5 -13.5t37.5 11.5q37 35 82 58.5t104 23.5q160 0 237.5 -137.5t77.5 -377.5v-61q-2 -16 -13 -28.5t-28 -12.5h-374q-31 0 -31 -31q0 -86 32.5 -134t92.5 -48q86 0 106 94 q4 20 18.5 27.5t28.5 7.5h129q35 0 35 -41q0 -53 -20.5 -110.5t-59.5 -105.5t-95 -80t-128 -32q-76 0 -123.5 27.5t-70.5 52.5q-14 16 -35 15.5t-33 -17.5q-29 -35 -73 -56.5t-124 -21.5q-92 0 -158.5 46.5t-109.5 123t-63.5 175t-20.5 200.5zM229 524q0 -63 5.5 -116.5 t18.5 -91t37.5 -59t63.5 -21.5t62.5 21.5t38 59t19.5 91t5 116.5q0 123 -32.5 189.5t-92.5 66.5q-55 0 -90 -66.5t-35 -189.5zM666 653q0 -18 20 -18h207q20 0 20 18q0 74 -32.5 112t-85.5 40q-66 0 -97.5 -46.5t-31.5 -105.5z" />
<glyph unicode="&#x178;" d="M57 1376q-10 23 1.5 40.5t31.5 17.5h225q29 0 39 -31l197 -567q2 -8 10 -9h4q8 0 10 9l197 567q10 31 39 31h225q20 0 31.5 -17.5t1.5 -40.5l-362 -913v-422q0 -16 -12.5 -28.5t-28.5 -12.5h-205q-16 0 -28.5 12.5t-12.5 28.5v422zM225 1597v185q0 16 12.5 28.5 t28.5 12.5h185q16 0 28.5 -12.5t12.5 -28.5v-185q0 -16 -12.5 -28.5t-28.5 -12.5h-185q-16 0 -28.5 12.5t-12.5 28.5zM635 1597v185q0 16 12 28.5t29 12.5h184q16 0 28.5 -12.5t12.5 -28.5v-185q0 -16 -12 -28.5t-29 -12.5h-184q-16 0 -28.5 12.5t-12.5 28.5z" />
<glyph unicode="&#x2c6;" d="M187 1187.5q-3 20.5 8 31.5l243 251q10 10 21.5 17.5t40.5 7.5h127q27 0 38 -7t21 -18l244 -251q10 -10 6 -31t-33 -21h-192q-23 0 -39.5 11.5t-24.5 21.5l-72 90q-14 20 -28 0l-72 -90q-8 -10 -24.5 -21.5t-38.5 -11.5h-195q-27 0 -30 20.5z" />
<glyph unicode="&#x2dc;" d="M233 1225v123q0 41 42 72.5t104 31.5q49 0 93 -8t88 -17.5t89.5 -17.5t98.5 -8q39 0 60 13t34 30q12 16 31.5 8t19.5 -37v-123q0 -41 -42 -72.5t-103 -31.5q-49 0 -93.5 8t-88.5 17.5t-90 17.5t-97 8q-35 0 -56.5 -11t-37.5 -32q-12 -14 -32 -7t-20 36z" />
<glyph unicode="&#x2000;" horiz-adv-x="988" />
<glyph unicode="&#x2001;" horiz-adv-x="1976" />
<glyph unicode="&#x2002;" horiz-adv-x="988" />
<glyph unicode="&#x2003;" horiz-adv-x="1976" />
<glyph unicode="&#x2004;" horiz-adv-x="658" />
<glyph unicode="&#x2005;" horiz-adv-x="494" />
<glyph unicode="&#x2006;" horiz-adv-x="329" />
<glyph unicode="&#x2007;" horiz-adv-x="329" />
<glyph unicode="&#x2008;" horiz-adv-x="247" />
<glyph unicode="&#x2009;" horiz-adv-x="395" />
<glyph unicode="&#x200a;" horiz-adv-x="109" />
<glyph unicode="&#x2010;" d="M242 446v203q0 16 12 28.5t29 12.5h559q16 0 28.5 -12t12.5 -29v-203q0 -16 -12.5 -28t-28.5 -12h-559q-16 0 -28.5 12t-12.5 28z" />
<glyph unicode="&#x2011;" d="M242 446v203q0 16 12 28.5t29 12.5h559q16 0 28.5 -12t12.5 -29v-203q0 -16 -12.5 -28t-28.5 -12h-559q-16 0 -28.5 12t-12.5 28z" />
<glyph unicode="&#x2012;" d="M242 446v203q0 16 12 28.5t29 12.5h559q16 0 28.5 -12t12.5 -29v-203q0 -16 -12.5 -28t-28.5 -12h-559q-16 0 -28.5 12t-12.5 28z" />
<glyph unicode="&#x2013;" d="M102 442v183q0 16 12.5 28.5t28.5 12.5h840q16 0 28.5 -12.5t12.5 -28.5v-183q0 -16 -12.5 -28.5t-28.5 -12.5h-840q-16 0 -28.5 12.5t-12.5 28.5z" />
<glyph unicode="&#x2014;" d="M-47 442v183q0 16 12 28.5t29 12.5h1141q16 0 28.5 -12.5t12.5 -28.5v-183q0 -16 -12.5 -28.5t-28.5 -12.5h-1141q-16 0 -28.5 12.5t-12.5 28.5z" />
<glyph unicode="&#x2018;" d="M393 840v239q0 41 12.5 78t32.5 64l131 172q10 14 24.5 27.5t45.5 13.5h41q31 0 45 -25t-2 -53l-111 -203q-6 -10 1.5 -18.5t17.5 -8.5h49q16 0 28.5 -12t12.5 -29v-245q0 -16 -12.5 -28.5t-28.5 -12.5h-246q-16 0 -28.5 12t-12.5 29z" />
<glyph unicode="&#x2019;" d="M401 823.5q-14 24.5 2 53.5l111 202q6 10 -1 18.5t-17 8.5h-50q-16 0 -28 12t-12 29v246q0 16 12 28.5t28 12.5h246q16 0 28.5 -12.5t12.5 -28.5v-240q0 -41 -12 -78t-33 -63l-131 -172q-10 -14 -24.5 -27.5t-45.5 -13.5h-41q-31 0 -45 24.5z" />
<glyph unicode="&#x201a;" d="M399 -282.5q-14 24.5 2 53.5l111 202q6 10 -1 18.5t-17 8.5h-50q-16 0 -28.5 12.5t-12.5 28.5v246q0 16 12.5 28.5t28.5 12.5h246q16 0 28.5 -12.5t12.5 -28.5v-240q0 -41 -12 -78t-33 -63l-131 -172q-10 -14 -24.5 -27.5t-45.5 -13.5h-41q-31 0 -45 24.5z" />
<glyph unicode="&#x201c;" d="M168 840v239q0 41 12.5 78t32.5 64l131 172q10 14 24.5 27.5t45.5 13.5h41q31 0 45 -25t-2 -53l-111 -203q-6 -10 1 -18.5t18 -8.5h49q16 0 28.5 -12t12.5 -29v-245q0 -16 -12.5 -28.5t-28.5 -12.5h-246q-16 0 -28.5 12t-12.5 29zM618 840v239q0 41 12.5 78t33.5 64 l131 172q10 14 24.5 27.5t44.5 13.5h41q31 0 45.5 -25t-2.5 -53l-110 -203q-6 -10 1 -18.5t17 -8.5h49q16 0 28.5 -12t12.5 -29v-245q0 -16 -12 -28.5t-29 -12.5h-246q-16 0 -28.5 12t-12.5 29z" />
<glyph unicode="&#x201d;" d="M172 823.5q-14 24.5 2 53.5l111 202q6 10 -1.5 18.5t-17.5 8.5h-49q-16 0 -28.5 12t-12.5 29v246q0 16 12.5 28.5t28.5 12.5h246q16 0 28.5 -12.5t12.5 -28.5v-240q0 -41 -12.5 -78t-32.5 -63l-131 -172q-10 -14 -24.5 -27.5t-45.5 -13.5h-41q-31 0 -45 24.5z M622.5 823.5q-14.5 24.5 2.5 53.5l110 202q6 10 -1 18.5t-17 8.5h-49q-16 0 -28.5 12t-12.5 29v246q0 16 12 28.5t29 12.5h245q16 0 28.5 -12.5t12.5 -28.5v-240q0 -41 -12 -78t-33 -63l-131 -172q-10 -14 -24.5 -27.5t-44.5 -13.5h-41q-31 0 -45.5 24.5z" />
<glyph unicode="&#x201e;" d="M174 -282.5q-14 24.5 2 53.5l111 202q6 10 -1 18.5t-18 8.5h-49q-16 0 -28.5 12.5t-12.5 28.5v246q0 16 12.5 28.5t28.5 12.5h246q16 0 28.5 -12.5t12.5 -28.5v-240q0 -41 -12.5 -78t-32.5 -63l-131 -172q-10 -14 -24.5 -27.5t-45.5 -13.5h-41q-31 0 -45 24.5z M624.5 -282.5q-14.5 24.5 2.5 53.5l110 202q6 10 -1 18.5t-17 8.5h-49q-16 0 -28.5 12.5t-12.5 28.5v246q0 16 12 28.5t29 12.5h245q16 0 28.5 -12.5t12.5 -28.5v-240q0 -41 -12 -78t-33 -63l-131 -172q-10 -14 -24.5 -27.5t-44.5 -13.5h-41q-31 0 -45.5 24.5z" />
<glyph unicode="&#x2022;" d="M375 397v293q0 16 12 28.5t29 12.5h293q16 0 28.5 -12t12.5 -29v-293q0 -16 -12.5 -28.5t-28.5 -12.5h-293q-16 0 -28.5 12.5t-12.5 28.5z" />
<glyph unicode="&#x2026;" d="M2 41v246q0 16 12.5 28.5t28.5 12.5h225q16 0 28.5 -12.5t12.5 -28.5v-246q0 -16 -12 -28.5t-29 -12.5h-225q-16 0 -28.5 12.5t-12.5 28.5zM412 41v246q0 16 12 28.5t29 12.5h225q16 0 28.5 -12.5t12.5 -28.5v-246q0 -16 -12.5 -28.5t-28.5 -12.5h-225q-16 0 -28.5 12.5 t-12.5 28.5zM817 41v246q0 16 12.5 28.5t28.5 12.5h225q16 0 28.5 -12.5t12.5 -28.5v-246q0 -16 -12 -28.5t-29 -12.5h-225q-16 0 -28.5 12.5t-12.5 28.5z" />
<glyph unicode="&#x202f;" horiz-adv-x="395" />
<glyph unicode="&#x2039;" d="M330 532.5q0 12.5 10 28.5l197 330q4 8 16 19.5t35 11.5h164q29 0 40 -17.5t-8 -50.5l-174 -297q-16 -23 0 -49l174 -297q18 -33 7 -50.5t-39 -17.5h-164q-23 0 -35 11.5t-16 19.5l-197 330q-10 16 -10 28.5z" />
<glyph unicode="&#x203a;" d="M333 160.5q-11 17.5 7 50.5l174 297q16 27 0 49l-174 297q-18 33 -7 50.5t40 17.5h164q23 0 35 -11.5t16 -19.5l196 -330q10 -16 10.5 -28.5t-10.5 -28.5l-196 -330q-4 -8 -16.5 -19.5t-34.5 -11.5h-164q-29 0 -40 17.5z" />
<glyph unicode="&#x205f;" horiz-adv-x="494" />
<glyph unicode="&#x20ac;" d="M20 512v127q0 16 12.5 28.5t28.5 12.5h39q10 0 13.5 6t3.5 10v80q0 10 -13 10h-43q-16 0 -28.5 12.5t-12.5 28.5v127q0 16 12.5 28.5t28.5 12.5h54q6 0 12 4.5t6 10.5q12 90 50 171t100.5 142t147.5 97t190 36q106 0 196 -35t154.5 -97t100.5 -148t36 -189 q0 -16 -12.5 -28.5t-28.5 -12.5h-123q-16 0 -36.5 -2t-39 1t-32 11.5t-15.5 30.5q-6 80 -59 130t-141 50q-92 0 -139.5 -46t-59.5 -111q-2 -14 10 -15h223q16 0 28.5 -12t12.5 -29v-127q0 -16 -12 -28.5t-29 -12.5h-233q-16 0 -16 -16v-70q0 -20 18 -20h231q16 0 28.5 -12.5 t12.5 -28.5v-127q0 -16 -12 -28.5t-29 -12.5h-215q-10 0 -15 -8t-3 -33q6 -68 55 -116t144 -48q88 0 141 50t59 130q2 16 13.5 28.5t27.5 12.5h205q16 0 28.5 -12t12.5 -29q0 -102 -36 -188t-100.5 -148.5t-154.5 -97.5t-196 -35t-191.5 36t-148 98.5t-100.5 144.5t-48 174 q-4 29 -7 35t-15 6h-50q-16 0 -28.5 12.5t-12.5 28.5z" />
<glyph unicode="&#x2122;" d="M29 1274v139q0 20 20 21h410q20 0 20 -21v-139q0 -20 -20 -21h-105q-10 0 -10 -10v-506q0 -20 -20 -20h-140q-20 0 -20 20v506q0 10 -10 10h-105q-20 0 -20 21zM541 737v676q0 20 20 21h162q14 0 20 -19l58 -186q4 -8 9 -8t9 8l58 186q6 18 22 19h162q20 0 20 -21v-676 q0 -20 -20 -20h-121q-20 0 -20 20v373q0 4 -3.5 4t-5.5 -4l-49 -141q-6 -16 -20 -17h-62q-14 0 -20 17l-49 141q-2 4 -5.5 4t-3.5 -4v-373q0 -20 -20 -20h-121q-20 0 -20 20z" />
<glyph unicode="&#xe000;" horiz-adv-x="1025" d="M0 1025h1025v-1025h-1025v1025z" />
<glyph unicode="&#xfb01;" d="M63 813v164q0 16 12.5 28.5t28.5 12.5h103q20 0 20 20v41q0 80 31 148.5t84 119t124 79t150 28.5h381q16 0 28.5 -12t12.5 -29v-184q0 -16 -12 -28.5t-29 -12.5h-381q-51 0 -86.5 -31t-35.5 -82v-37q0 -20 20 -20h479q14 0 23.5 -10.5t9.5 -22.5v-944q0 -16 -12.5 -28.5 t-28.5 -12.5h-184q-16 0 -28.5 12.5t-12.5 28.5v711q0 20 -17 20h-229q-20 0 -20 -20v-711q0 -16 -12.5 -28.5t-28.5 -12.5h-185q-16 0 -28.5 12.5t-12.5 28.5v711q0 20 -20 20h-103q-16 0 -28.5 12.5t-12.5 28.5z" />
<glyph unicode="&#xfb02;" d="M41 813v164q0 16 12.5 28.5t28.5 12.5h82q20 0 20 20v41q0 80 31 148.5t84 119t124 79t150 28.5q16 0 28.5 -12t12.5 -29v-184q0 -16 -12 -28.5t-29 -12.5q-51 0 -86.5 -31t-35.5 -82v-37q0 -20 20 -20h246q20 0 20 20v367q0 16 12.5 28.5t28.5 12.5h164q16 0 28.5 -12.5 t12.5 -28.5v-1364q0 -16 -12.5 -28.5t-28.5 -12.5h-164q-16 0 -28.5 12.5t-12.5 28.5v711q0 20 -20 20h-246q-20 0 -20 -20v-711q0 -16 -12.5 -28.5t-28.5 -12.5h-185q-16 0 -28.5 12.5t-12.5 28.5v711q0 20 -20 20h-82q-16 0 -28.5 12.5t-12.5 28.5z" />
</font>
</defs>
</svg>
